SplineFontDB: 3.2
FontName: YAWYSIWYGEE_Glyphs
FullName: YAWYSIWYGEE_Glyphs
FamilyName: YAWYSIWYGEE_Glyphs
Weight: Book
Copyright: Typeface (c) Quivira-font.com. 2005. All Rights Reserved
Version: 1.0
ItalicAngle: 0
UnderlinePosition: -250
UnderlineWidth: 100
Ascent: 1638
Descent: 410
InvalidEm: 0
sfntRevision: 0x00010000
LayerCount: 2
Layer: 0 1 "Back" 1
Layer: 1 1 "Fore" 0
XUID: [1021 184 -651512674 1233]
StyleMap: 0x0040
FSType: 8
OS2Version: 3
OS2_WeightWidthSlopeOnly: 0
OS2_UseTypoMetrics: 0
CreationTime: 1265257974
ModificationTime: 1589208589
PfmFamily: 17
TTFWeight: 400
TTFWidth: 5
LineGap: 602
VLineGap: 0
Panose: 2 2 6 3 5 4 5 2 3 3
OS2TypoAscent: 1410
OS2TypoAOffset: 0
OS2TypoDescent: -500
OS2TypoDOffset: 0
OS2TypoLinegap: 205
OS2WinAscent: 1900
OS2WinAOffset: 0
OS2WinDescent: 510
OS2WinDOffset: 0
HheadAscent: 1900
HheadAOffset: 0
HheadDescent: -510
HheadDOffset: 0
OS2SubXSize: 1229
OS2SubYSize: 1229
OS2SubXOff: 0
OS2SubYOff: 700
OS2SupXSize: 1229
OS2SupYSize: 1229
OS2SupXOff: 0
OS2SupYOff: 1167
OS2StrikeYSize: 100
OS2StrikeYPos: 450
OS2CapHeight: 1400
OS2XHeight: 900
OS2FamilyClass: 261
OS2Vendor: 'HL  '
OS2CodePages: 600101bf.dff70000
OS2UnicodeRanges: e5000eff.5a44fffb.0374f030.00000000
Lookup: 4 0 0 "'mark' Mark Positioning lookup 0" { "'mark' Mark Positioning lookup 0 subtable"  } ['mark' ('DFLT' <'dflt' > ) ]
Lookup: 4 0 0 "'mark' Mark Positioning lookup 1" { "'mark' Mark Positioning lookup 1 subtable"  } ['mark' ('DFLT' <'dflt' > ) ]
Lookup: 6 256 0 "'mark' Mark Positioning lookup 2" { "'mark' Mark Positioning lookup 2 subtable"  } ['mark' ('DFLT' <'dflt' > ) ]
Lookup: 1 0 0 "Single Substitution lookup 3" { "Single Substitution lookup 3 subtable"  } []
Lookup: 6 256 0 "'mark' Mark Positioning lookup 4" { "'mark' Mark Positioning lookup 4 subtable"  } ['mark' ('DFLT' <'dflt' > ) ]
Lookup: 1 0 0 "Single Substitution lookup 5" { "Single Substitution lookup 5 subtable"  } []

StartChar: exclam
Encoding: 33 33 1
Width: 420
Flags: W
LayerCount: 2
Fore
SplineSet
210 220 m 256,0,1
 239 220 239 220 265.5 206 c 128,-1,2
 292 192 292 192 306 165.5 c 128,-1,3
 320 139 320 139 320 110 c 256,4,5
 320 81 320 81 306 54.5 c 128,-1,6
 292 28 292 28 265.5 14 c 128,-1,7
 239 0 239 0 210 0 c 256,8,9
 181 0 181 0 154.5 14 c 128,-1,10
 128 28 128 28 114 54.5 c 128,-1,11
 100 81 100 81 100 110 c 256,12,13
 100 139 100 139 114 165.5 c 128,-1,14
 128 192 128 192 154.5 206 c 128,-1,15
 181 220 181 220 210 220 c 256,0,1
228 400 m 1,16,-1
 192 400 l 1,17,-1
 106 1188 l 2,18,19
 100 1239 100 1239 100 1265 c 0,20,21
 100 1326 100 1326 132.5 1363 c 128,-1,22
 165 1400 165 1400 211 1400 c 256,23,24
 257 1400 257 1400 288.5 1363 c 128,-1,25
 320 1326 320 1326 320 1253 c 0,26,27
 320 1230 320 1230 316 1188 c 2,28,-1
 228 400 l 1,16,-1
EndSplineSet
Validated: 1
EndChar

StartChar: quotedbl
Encoding: 34 34 2
Width: 670
Flags: W
LayerCount: 2
Fore
SplineSet
210 1400 m 256,0,1
 239 1400 239 1400 265.5 1386 c 128,-1,2
 292 1372 292 1372 306 1345.5 c 128,-1,3
 320 1319 320 1319 320 1290 c 256,4,5
 320 1261 320 1261 279.5 1080.5 c 128,-1,6
 239 900 239 900 210 900 c 256,7,8
 181 900 181 900 140.5 1080.5 c 128,-1,9
 100 1261 100 1261 100 1290 c 256,10,11
 100 1319 100 1319 114 1345.5 c 128,-1,12
 128 1372 128 1372 154.5 1386 c 128,-1,13
 181 1400 181 1400 210 1400 c 256,0,1
460 1400 m 256,14,15
 489 1400 489 1400 515.5 1386 c 128,-1,16
 542 1372 542 1372 556 1345.5 c 128,-1,17
 570 1319 570 1319 570 1290 c 256,18,19
 570 1261 570 1261 529.5 1080.5 c 128,-1,20
 489 900 489 900 460 900 c 256,21,22
 431 900 431 900 390.5 1080.5 c 128,-1,23
 350 1261 350 1261 350 1290 c 256,24,25
 350 1319 350 1319 364 1345.5 c 128,-1,26
 378 1372 378 1372 404.5 1386 c 128,-1,27
 431 1400 431 1400 460 1400 c 256,14,15
EndSplineSet
Validated: 1
EndChar

StartChar: numbersign
Encoding: 35 35 3
Width: 1250
Flags: W
LayerCount: 2
Fore
SplineSet
294 538 m 1,0,-1
 381 863 l 1,1,-1
 150 863 l 1,2,-1
 150 938 l 1,3,-1
 401 938 l 1,4,-1
 525 1400 l 1,5,-1
 603 1400 l 1,6,-1
 479 938 l 1,7,-1
 851 938 l 1,8,-1
 975 1400 l 1,9,-1
 1053 1400 l 1,10,-1
 929 938 l 1,11,-1
 1150 938 l 1,12,-1
 1150 863 l 1,13,-1
 909 863 l 1,14,-1
 821 538 l 1,15,-1
 1100 538 l 1,16,-1
 1100 463 l 1,17,-1
 801 463 l 1,18,-1
 677 0 l 1,19,-1
 600 0 l 1,20,-1
 724 463 l 1,21,-1
 351 463 l 1,22,-1
 227 0 l 1,23,-1
 150 0 l 1,24,-1
 274 463 l 1,25,-1
 100 463 l 1,26,-1
 100 538 l 1,27,-1
 294 538 l 1,0,-1
459 863 m 1,28,-1
 371 538 l 1,29,-1
 744 538 l 1,30,-1
 831 863 l 1,31,-1
 459 863 l 1,28,-1
EndSplineSet
Validated: 1
EndChar

StartChar: dollar
Encoding: 36 36 4
Width: 1001
Flags: W
LayerCount: 2
Fore
SplineSet
539 1401 m 1,0,1
 605 1388 605 1388 676 1358 c 0,2,3
 732 1333 732 1333 755 1333 c 0,4,5
 781 1333 781 1333 797.5 1348.5 c 128,-1,6
 814 1364 814 1364 824 1410 c 1,7,-1
 861 1410 l 1,8,-1
 861 947 l 1,9,-1
 824 947 l 1,10,11
 806 1080 806 1080 759.5 1159 c 128,-1,12
 713 1238 713 1238 627 1274 c 0,13,14
 584 1292 584 1292 539 1301 c 1,15,-1
 539 801 l 1,16,17
 720 704 720 704 797 652 c 0,18,19
 876 598 876 598 913.5 525 c 128,-1,20
 951 452 951 452 951 372 c 0,21,22
 951 210 951 210 832 100 c 0,23,24
 717 -6 717 -6 539 -10 c 1,25,-1
 539 -150 l 1,26,-1
 464 -150 l 1,27,-1
 464 -8 l 1,28,29
 438 -5 438 -5 413 -1 c 0,30,31
 382 4 382 4 284.5 35 c 128,-1,32
 187 66 187 66 161 66 c 0,33,34
 136 66 136 66 121.5 51 c 128,-1,35
 107 36 107 36 100 -10 c 1,36,-1
 63 -10 l 1,37,-1
 63 449 l 1,38,-1
 100 449 l 1,39,40
 126 305 126 305 170 233.5 c 128,-1,41
 214 162 214 162 305 126 c 0,42,43
 378 97 378 97 464 91 c 1,44,-1
 464 606 l 1,45,46
 456 611 456 611 447 616 c 0,47,48
 273 712 273 712 199.5 769 c 128,-1,49
 126 826 126 826 88 895.5 c 128,-1,50
 50 965 50 965 50 1048 c 0,51,52
 50 1202 50 1202 162 1306 c 128,-1,53
 274 1410 274 1410 447 1410 c 2,54,-1
 464 1410 l 1,55,-1
 464 1550 l 1,56,-1
 539 1550 l 1,57,-1
 539 1401 l 1,0,1
539 91 m 1,58,59
 639 98 639 98 701 144 c 0,60,61
 773 197 773 197 773 296 c 0,62,63
 773 346 773 346 745.5 396 c 128,-1,64
 718 446 718 446 660 490 c 0,65,66
 633 510 633 510 539 564 c 1,67,-1
 539 91 l 1,58,59
464 1310 m 1,68,-1
 449 1310 l 2,69,70
 345 1310 345 1310 277 1258 c 128,-1,71
 209 1206 209 1206 209 1116 c 0,72,73
 209 1054 209 1054 252 1004 c 1,74,75
 296 941 296 941 464 843 c 1,76,-1
 464 1310 l 1,68,-1
EndSplineSet
Validated: 1
EndChar

StartChar: percent
Encoding: 37 37 5
Width: 1550
Flags: W
LayerCount: 2
Fore
SplineSet
375 1410 m 256,0,1
 459 1410 459 1410 537.5 1361.5 c 128,-1,2
 616 1313 616 1313 658 1223 c 128,-1,3
 700 1133 700 1133 700 1025 c 0,4,5
 700 918 700 918 658 827.5 c 128,-1,6
 616 737 616 737 537.5 688.5 c 128,-1,7
 459 640 459 640 375 640 c 256,8,9
 291 640 291 640 212.5 688.5 c 128,-1,10
 134 737 134 737 92 827.5 c 128,-1,11
 50 918 50 918 50 1025 c 0,12,13
 50 1133 50 1133 92 1223 c 128,-1,14
 134 1313 134 1313 212.5 1361.5 c 128,-1,15
 291 1410 291 1410 375 1410 c 256,0,1
175 1025 m 256,17,18
 175 937 175 937 201 864.5 c 128,-1,19
 227 792 227 792 275 753.5 c 128,-1,20
 323 715 323 715 375 715 c 256,21,22
 427 715 427 715 475 753.5 c 128,-1,23
 523 792 523 792 549 864.5 c 128,-1,24
 575 937 575 937 575 1025 c 256,25,26
 575 1113 575 1113 549 1185.5 c 128,-1,27
 523 1258 523 1258 475 1296.5 c 128,-1,28
 427 1335 427 1335 375 1335 c 256,29,30
 323 1335 323 1335 275 1296.5 c 128,-1,31
 227 1258 227 1258 201 1185.5 c 128,-1,16
 175 1113 175 1113 175 1025 c 256,17,18
1175 760 m 256,32,33
 1259 760 1259 760 1337.5 711.5 c 128,-1,34
 1416 663 1416 663 1458 573 c 128,-1,35
 1500 483 1500 483 1500 375 c 0,36,37
 1500 268 1500 268 1458 177.5 c 128,-1,38
 1416 87 1416 87 1337.5 38.5 c 128,-1,39
 1259 -10 1259 -10 1175 -10 c 256,40,41
 1091 -10 1091 -10 1012.5 38.5 c 128,-1,42
 934 87 934 87 892 177.5 c 128,-1,43
 850 268 850 268 850 375 c 0,44,45
 850 483 850 483 892 573 c 128,-1,46
 934 663 934 663 1012.5 711.5 c 128,-1,47
 1091 760 1091 760 1175 760 c 256,32,33
975 375 m 256,49,50
 975 287 975 287 1001 214.5 c 128,-1,51
 1027 142 1027 142 1075 103.5 c 128,-1,52
 1123 65 1123 65 1175 65 c 256,53,54
 1227 65 1227 65 1275 103.5 c 128,-1,55
 1323 142 1323 142 1349 214.5 c 128,-1,56
 1375 287 1375 287 1375 375 c 256,57,58
 1375 463 1375 463 1349 535.5 c 128,-1,59
 1323 608 1323 608 1275 646.5 c 128,-1,60
 1227 685 1227 685 1175 685 c 256,61,62
 1123 685 1123 685 1075 646.5 c 128,-1,63
 1027 608 1027 608 1001 535.5 c 128,-1,48
 975 463 975 463 975 375 c 256,49,50
254 0 m 1,64,-1
 1235 1400 l 1,65,-1
 1326 1400 l 1,66,-1
 345 0 l 1,67,-1
 254 0 l 1,64,-1
EndSplineSet
Validated: 1
EndChar

StartChar: ampersand
Encoding: 38 38 6
Width: 1556
Flags: W
LayerCount: 2
Fore
SplineSet
1020 904 m 1,0,-1
 1440 904 l 1,1,-1
 1440 867 l 1,2,3
 1353 860 1353 860 1311.5 828.5 c 128,-1,4
 1270 797 1270 797 1182 638 c 128,-1,5
 1094 479 1094 479 984 341 c 1,6,7
 1063 227 1063 227 1138 185.5 c 128,-1,8
 1213 144 1213 144 1284 144 c 0,9,10
 1353 144 1353 144 1401 181.5 c 128,-1,11
 1449 219 1449 219 1469 292 c 1,12,-1
 1506 265 l 1,13,14
 1469 124 1469 124 1387 57 c 128,-1,15
 1305 -10 1305 -10 1196 -10 c 0,16,17
 1114 -10 1114 -10 1024.5 34.5 c 128,-1,18
 935 79 935 79 835 185 c 1,19,20
 711 75 711 75 616.5 32.5 c 128,-1,21
 522 -10 522 -10 409 -10 c 0,22,23
 244 -10 244 -10 147 78 c 128,-1,24
 50 166 50 166 50 298 c 0,25,26
 50 419 50 419 137 539.5 c 128,-1,27
 224 660 224 660 464 789 c 1,28,29
 417 893 417 893 400 954.5 c 128,-1,30
 383 1016 383 1016 383 1077 c 0,31,32
 383 1258 383 1258 509 1340 c 1,33,34
 607 1410 607 1410 732 1410 c 0,35,36
 851 1410 851 1410 920.5 1338.5 c 128,-1,37
 990 1267 990 1267 990 1154 c 0,38,39
 990 1048 990 1048 923 978 c 128,-1,40
 856 908 856 908 672 813 c 1,41,42
 799 587 799 587 937 399 c 1,43,44
 1113 609 1113 609 1113 753 c 0,45,46
 1113 799 1113 799 1083 835 c 0,47,48
 1061 862 1061 862 1020 867 c 1,49,-1
 1020 904 l 1,0,-1
638 878 m 1,50,51
 762 937 762 937 818.5 1002 c 128,-1,52
 875 1067 875 1067 875 1159 c 0,53,54
 875 1241 875 1241 835.5 1289 c 128,-1,55
 796 1337 796 1337 730 1337 c 0,56,57
 643 1337 643 1337 598.5 1280.5 c 128,-1,58
 554 1224 554 1224 554 1156 c 0,59,60
 554 1107 554 1107 571 1051.5 c 128,-1,61
 588 996 588 996 638 878 c 1,50,51
793 222 m 1,62,63
 661 402 661 402 610 485 c 128,-1,64
 559 568 559 568 498 691 c 1,65,66
 378 622 378 622 314 539 c 128,-1,67
 250 456 250 456 250 359 c 0,68,69
 250 242 250 242 322.5 161 c 128,-1,70
 395 80 395 80 512 80 c 0,71,72
 575 80 575 80 628.5 105 c 128,-1,73
 682 130 682 130 793 222 c 1,62,63
EndSplineSet
Validated: 1
EndChar

StartChar: quotesingle
Encoding: 39 39 7
Width: 420
Flags: W
LayerCount: 2
Fore
SplineSet
210 1400 m 256,0,1
 239 1400 239 1400 265.5 1386 c 128,-1,2
 292 1372 292 1372 306 1345.5 c 128,-1,3
 320 1319 320 1319 320 1290 c 256,4,5
 320 1261 320 1261 279.5 1080.5 c 128,-1,6
 239 900 239 900 210 900 c 256,7,8
 181 900 181 900 140.5 1080.5 c 128,-1,9
 100 1261 100 1261 100 1290 c 256,10,11
 100 1319 100 1319 114 1345.5 c 128,-1,12
 128 1372 128 1372 154.5 1386 c 128,-1,13
 181 1400 181 1400 210 1400 c 256,0,1
EndSplineSet
Validated: 1
EndChar

StartChar: parenleft
Encoding: 40 40 8
Width: 660
Flags: W
LayerCount: 2
Fore
SplineSet
250 550 m 256,0,1
 250 -25 250 -25 555 -430 c 0,2,3
 582 -465 582 -465 610 -500 c 1,4,5
 499 -423 499 -423 405 -313 c 0,6,7
 100 45 100 45 100 550 c 256,8,9
 100 1055 100 1055 405 1414 c 0,10,11
 499 1523 499 1523 610 1600 c 1,12,13
 582 1566 582 1566 555 1530 c 0,14,15
 250 1125 250 1125 250 550 c 256,0,1
EndSplineSet
Validated: 1
EndChar

StartChar: parenright
Encoding: 41 41 9
Width: 660
Flags: W
LayerCount: 2
Fore
SplineSet
105 1530 m 4,1,2
 78 1566 78 1566 50 1600 c 5,3,4
 161 1523 161 1523 255 1414 c 4,5,6
 560 1055 560 1055 560 550 c 260,7,8
 560 45 560 45 255 -313 c 4,9,10
 161 -423 161 -423 50 -500 c 5,11,12
 78 -465 78 -465 105 -430 c 4,13,14
 410 -25 410 -25 410 550 c 260,15,0
 410 1125 410 1125 105 1530 c 4,1,2
EndSplineSet
Validated: 1
EndChar

StartChar: asterisk
Encoding: 42 42 10
Width: 836
Flags: W
LayerCount: 2
Fore
SplineSet
383 1057 m 1,0,1
 377 1127 377 1127 354 1196 c 0,2,3
 328 1271 328 1271 328 1300 c 256,4,5
 328 1329 328 1329 337 1355.5 c 128,-1,6
 346 1382 346 1382 367.5 1396 c 128,-1,7
 389 1410 389 1410 418 1410 c 256,8,9
 447 1410 447 1410 468.5 1396 c 128,-1,10
 490 1382 490 1382 499 1355.5 c 128,-1,11
 508 1329 508 1329 508 1300 c 256,12,13
 508 1271 508 1271 483 1196 c 0,14,15
 460 1127 460 1127 454 1058 c 1,16,17
 508 1097 508 1097 555 1150 c 0,18,19
 607 1209 607 1209 633 1224 c 0,20,21
 658 1238 658 1238 686 1244 c 0,22,23
 694 1245 694 1245 703 1245 c 0,24,25
 720 1245 720 1245 736 1238 c 0,26,27
 758 1226 758 1226 773 1201 c 0,28,29
 786 1178 786 1178 786 1153 c 2,30,-1
 786 1150 l 2,31,32
 785 1124 785 1124 766.5 1103 c 128,-1,33
 748 1082 748 1082 723 1068 c 0,34,35
 697 1053 697 1053 620 1038 c 0,36,37
 569 1027 569 1027 523 1010 c 1,38,39
 569 993 569 993 620 983 c 0,40,41
 697 967 697 967 723 952 c 0,42,43
 748 938 748 938 766.5 917 c 128,-1,44
 785 896 785 896 786 870 c 2,45,-1
 786 867 l 2,46,47
 786 842 786 842 773 819 c 0,48,49
 758 794 758 794 736 783 c 0,50,51
 720 775 720 775 703 775 c 0,52,53
 694 775 694 775 686 777 c 0,54,55
 658 782 658 782 633 796 c 0,56,57
 607 811 607 811 555 871 c 0,58,59
 508 923 508 923 454 962 c 1,60,61
 460 894 460 894 483 825 c 0,62,63
 508 749 508 749 508 720 c 256,64,65
 508 691 508 691 499 664.5 c 128,-1,66
 490 638 490 638 468.5 624 c 128,-1,67
 447 610 447 610 418 610 c 256,68,69
 389 610 389 610 367.5 624 c 128,-1,70
 346 638 346 638 337 664.5 c 128,-1,71
 328 691 328 691 328 720 c 256,72,73
 328 749 328 749 354 825 c 0,74,75
 377 894 377 894 383 963 c 1,76,77
 328 924 328 924 282 871 c 0,78,79
 229 811 229 811 203 796 c 0,80,81
 178 782 178 782 151 777 c 0,82,83
 142 775 142 775 133 775 c 0,84,85
 116 775 116 775 101 783 c 0,86,87
 78 794 78 794 63 819 c 0,88,89
 50 842 50 842 50 867 c 2,90,-1
 50 870 l 2,91,92
 51 896 51 896 69.5 917 c 128,-1,93
 88 938 88 938 113 952 c 0,94,95
 139 967 139 967 217 983 c 0,96,97
 267 993 267 993 313 1010 c 1,98,99
 267 1027 267 1027 217 1038 c 0,100,101
 139 1053 139 1053 113 1068 c 0,102,103
 88 1082 88 1082 69.5 1103 c 128,-1,104
 51 1124 51 1124 50 1150 c 2,105,-1
 50 1153 l 2,106,107
 50 1178 50 1178 63 1201 c 0,108,109
 78 1226 78 1226 101 1238 c 0,110,111
 116 1245 116 1245 133 1245 c 0,112,113
 142 1245 142 1245 151 1244 c 0,114,115
 178 1238 178 1238 203 1224 c 0,116,117
 229 1209 229 1209 282 1150 c 0,118,119
 328 1096 328 1096 383 1057 c 1,0,1
EndSplineSet
Validated: 1
EndChar

StartChar: plus
Encoding: 43 43 11
Width: 1200
Flags: W
LayerCount: 2
Fore
SplineSet
563 663 m 1,0,-1
 100 663 l 1,1,-1
 100 738 l 1,2,-1
 563 738 l 1,3,-1
 563 1200 l 1,4,-1
 638 1200 l 1,5,-1
 638 738 l 1,6,-1
 1100 738 l 1,7,-1
 1100 663 l 1,8,-1
 638 663 l 1,9,-1
 638 200 l 1,10,-1
 563 200 l 1,11,-1
 563 663 l 1,0,-1
EndSplineSet
Validated: 1
EndChar

StartChar: comma
Encoding: 44 42233 12
AltUni2: 00201a.ffffffff.0 00002c.ffffffff.0
Width: 476
Flags: W
LayerCount: 2
Fore
SplineSet
236 217 m 4,0,1
 284 207 284 207 325 163 c 4,2,3
 376 105 376 105 376 10 c 4,4,5
 376 -93 376 -93 304.5 -181.5 c 132,-1,6
 233 -270 233 -270 78 -321 c 5,7,-1
 78 -277 l 5,8,9
 181 -243 181 -243 237.5 -171.5 c 132,-1,10
 294 -100 294 -100 294 -20 c 4,11,12
 294 -1 294 -1 285 12 c 4,13,14
 280 18 280 18 276 20 c 4,15,16
 271 17 271 17 266 14 c 4,17,18
 239 0 239 0 210 0 c 260,19,20
 181 0 181 0 154.5 14 c 132,-1,21
 128 28 128 28 114 54.5 c 132,-1,22
 100 81 100 81 100 110 c 260,23,24
 100 139 100 139 114 165.5 c 132,-1,25
 128 192 128 192 155 206 c 4,26,27
 180 219 180 219 207 220 c 6,28,-1
 210 220 l 6,29,30
 223 220 223 220 236 217 c 4,0,1
EndSplineSet
Validated: 1
EndChar

StartChar: hyphen
Encoding: 45 8209 13
AltUni2: 002010.ffffffff.0 0000ad.ffffffff.0 00002d.ffffffff.0
Width: 700
Flags: W
LayerCount: 2
Fore
SplineSet
100 375 m 1,0,-1
 100 525 l 1,1,-1
 600 525 l 1,2,-1
 600 375 l 1,3,-1
 100 375 l 1,0,-1
EndSplineSet
Validated: 1
EndChar

StartChar: fullstop
Encoding: 46 42232 14
AltUni2: 002024.ffffffff.0 00002e.ffffffff.0
Width: 420
Flags: W
LayerCount: 2
Fore
SplineSet
210 220 m 256,0,1
 239 220 239 220 265.5 206 c 128,-1,2
 292 192 292 192 306 165.5 c 128,-1,3
 320 139 320 139 320 110 c 256,4,5
 320 81 320 81 306 54.5 c 128,-1,6
 292 28 292 28 265.5 14 c 128,-1,7
 239 0 239 0 210 0 c 256,8,9
 181 0 181 0 154.5 14 c 128,-1,10
 128 28 128 28 114 54.5 c 128,-1,11
 100 81 100 81 100 110 c 256,12,13
 100 139 100 139 114 165.5 c 128,-1,14
 128 192 128 192 154.5 206 c 128,-1,15
 181 220 181 220 210 220 c 256,0,1
EndSplineSet
Validated: 1
EndChar

StartChar: slash
Encoding: 47 47 15
Width: 790
Flags: W
LayerCount: 2
Fore
SplineSet
100 0 m 1,0,-1
 610 1400 l 1,1,-1
 690 1400 l 1,2,-1
 180 0 l 1,3,-1
 100 0 l 1,0,-1
EndSplineSet
Validated: 1
EndChar

StartChar: zero
Encoding: 48 48 16
Width: 1000
Flags: W
LayerCount: 2
Fore
SplineSet
499 1410 m 0,0,1
 608 1410 608 1410 708.5 1320 c 128,-1,2
 809 1230 809 1230 863 1061 c 128,-1,3
 917 892 917 892 917 700 c 256,4,5
 917 508 917 508 863 339 c 128,-1,6
 809 170 809 170 708.5 80 c 128,-1,7
 608 -10 608 -10 499 -10 c 0,8,9
 391 -10 391 -10 290.5 80 c 128,-1,10
 190 170 190 170 136 339 c 128,-1,11
 82 508 82 508 82 700 c 256,12,13
 82 892 82 892 136 1061 c 128,-1,14
 190 1230 190 1230 290.5 1320 c 128,-1,15
 391 1410 391 1410 499 1410 c 0,0,1
365.5 1255 m 128,-1,17
 301 1175 301 1175 266.5 1024 c 128,-1,18
 232 873 232 873 232 700 c 0,19,20
 232 528 232 528 266.5 376.5 c 128,-1,21
 301 225 301 225 365.5 145 c 128,-1,22
 430 65 430 65 499 65 c 0,23,24
 569 65 569 65 633.5 145 c 128,-1,25
 698 225 698 225 732.5 376.5 c 128,-1,26
 767 528 767 528 767 700 c 0,27,28
 767 873 767 873 732.5 1024 c 128,-1,29
 698 1175 698 1175 633.5 1255 c 128,-1,30
 569 1335 569 1335 499 1335 c 0,31,16
 430 1335 430 1335 365.5 1255 c 128,-1,17
EndSplineSet
Validated: 1
EndChar

StartChar: one
Encoding: 49 49 17
Width: 1000
Flags: W
LayerCount: 2
Fore
SplineSet
525 170 m 2,0,-1
 525 950 l 1,1,-1
 240 950 l 1,2,-1
 240 1025 l 1,3,4
 525 1025 525 1025 600 1410 c 1,5,-1
 675 1410 l 1,6,-1
 675 170 l 2,7,8
 675 120 675 120 700 80 c 128,-1,9
 725 40 725 40 795 40 c 2,10,-1
 845 40 l 1,11,-1
 845 0 l 1,12,-1
 355 0 l 1,13,-1
 355 40 l 1,14,-1
 405 40 l 2,15,16
 475 40 475 40 500 80 c 128,-1,17
 525 120 525 120 525 170 c 2,0,-1
EndSplineSet
Validated: 1
EndChar

StartChar: two
Encoding: 50 50 18
Width: 1000
Flags: W
LayerCount: 2
Fore
SplineSet
947 261 m 1,0,-1
 852 0 l 1,1,-1
 52 0 l 1,2,-1
 52 57 l 1,3,4
 405 379 405 379 549 583 c 128,-1,5
 693 787 693 787 693 956 c 0,6,7
 693 1095 693 1095 614 1177.5 c 128,-1,8
 535 1260 535 1260 425 1260 c 0,9,10
 325 1260 325 1260 245.5 1192 c 128,-1,11
 166 1124 166 1124 128 1011 c 1,12,-1
 91 1011 l 1,13,14
 116 1196 116 1196 219.5 1303 c 128,-1,15
 323 1410 323 1410 478 1410 c 0,16,17
 643 1410 643 1410 753.5 1296 c 128,-1,18
 864 1182 864 1182 864 1028 c 0,19,20
 864 925 864 925 816 822 c 0,21,22
 742 660 742 660 576 479 c 0,23,24
 327 207 327 207 265 150 c 1,25,-1
 619 150 l 2,26,27
 727 150 727 150 770.5 158.5 c 128,-1,28
 814 167 814 167 849 191.5 c 128,-1,29
 884 216 884 216 910 261 c 1,30,-1
 947 261 l 1,0,-1
EndSplineSet
Validated: 1
EndChar

StartChar: three
Encoding: 51 51 19
Width: 1000
Flags: W
LayerCount: 2
Fore
SplineSet
730 375 m 0,0,1
 730 453 730 453 695.5 525.5 c 128,-1,2
 661 598 661 598 596.5 636.5 c 128,-1,3
 532 675 532 675 348 675 c 1,4,-1
 348 727 l 1,5,6
 468 727 468 727 549.5 777.5 c 128,-1,7
 631 828 631 828 660.5 897 c 128,-1,8
 690 966 690 966 690 1040 c 0,9,10
 690 1124 690 1124 660.5 1183 c 128,-1,11
 631 1242 631 1242 576.5 1278.5 c 128,-1,12
 522 1315 522 1315 462 1315 c 0,13,14
 403 1315 403 1315 333.5 1288.5 c 128,-1,15
 264 1262 264 1262 179 1141 c 1,16,-1
 140 1180 l 1,17,18
 223 1327 223 1327 298.5 1368.5 c 128,-1,19
 374 1410 374 1410 462 1410 c 0,20,21
 561 1410 561 1410 651.5 1363.5 c 128,-1,22
 742 1317 742 1317 791 1230.5 c 128,-1,23
 840 1144 840 1144 840 1040 c 0,24,25
 840 946 840 946 791 859.5 c 128,-1,26
 742 773 742 773 652 727 c 0,27,28
 643 722 643 722 634 718 c 1,29,30
 653 711 653 711 672 702 c 0,31,32
 772 653 772 653 826 563 c 128,-1,33
 880 473 880 473 880 375 c 0,34,35
 880 268 880 268 826 177.5 c 128,-1,36
 772 87 772 87 671.5 38.5 c 128,-1,37
 571 -10 571 -10 463 -10 c 0,38,39
 344 -10 344 -10 248 53 c 128,-1,40
 152 116 152 116 119 212 c 1,41,-1
 150 230 l 1,42,43
 155 218 155 218 159 208 c 0,44,45
 194 141 194 141 278.5 97 c 128,-1,46
 363 53 363 53 463 53 c 0,47,48
 532 53 532 53 591.5 93 c 128,-1,49
 651 133 651 133 690.5 208 c 128,-1,50
 730 283 730 283 730 375 c 0,0,1
EndSplineSet
Validated: 1
EndChar

StartChar: four
Encoding: 52 52 20
Width: 1000
Flags: W
LayerCount: 2
Fore
SplineSet
797 1400 m 1,0,-1
 797 500 l 1,1,-1
 975 500 l 1,2,-1
 975 350 l 1,3,-1
 797 350 l 1,4,-1
 797 0 l 1,5,-1
 647 0 l 1,6,-1
 647 350 l 1,7,-1
 25 350 l 1,8,-1
 25 500 l 1,9,-1
 647 1400 l 1,10,-1
 797 1400 l 1,0,-1
647 500 m 1,11,-1
 647 1268 l 1,12,-1
 116 500 l 1,13,-1
 647 500 l 1,11,-1
EndSplineSet
Validated: 1
EndChar

StartChar: five
Encoding: 53 53 21
Width: 1000
Flags: W
LayerCount: 2
Fore
SplineSet
873 1400 m 1,0,-1
 723 1250 l 1,1,-1
 331 1250 l 1,2,-1
 269 862 l 1,3,4
 337 900 337 900 456 900 c 0,5,6
 564 900 564 900 664.5 842 c 128,-1,7
 765 784 765 784 819 675.5 c 128,-1,8
 873 567 873 567 873 450 c 0,9,10
 873 323 873 323 819 214.5 c 128,-1,11
 765 106 765 106 664.5 48 c 128,-1,12
 564 -10 564 -10 456 -10 c 0,13,14
 347 -10 347 -10 251.5 43 c 128,-1,15
 156 96 156 96 112 204 c 0,16,17
 107 222 107 222 107 238 c 0,18,19
 107 294 107 294 168 304 c 0,20,21
 181 306 181 306 192 306 c 0,22,23
 232 306 232 306 247 280 c 0,24,25
 260 256 260 256 260 231 c 0,26,27
 260 223 260 223 259 215 c 0,28,29
 257 206 257 206 257 197 c 0,30,31
 257 172 257 172 270 147 c 0,32,33
 287 111 287 111 336.5 88 c 128,-1,34
 386 65 386 65 456 65 c 0,35,36
 525 65 525 65 584.5 113 c 128,-1,37
 644 161 644 161 683.5 252 c 128,-1,38
 723 343 723 343 723 450 c 0,39,40
 723 548 723 548 683.5 628.5 c 128,-1,41
 644 709 644 709 584.5 747 c 128,-1,42
 525 785 525 785 456 785 c 0,43,44
 316 785 316 785 230 742 c 0,45,46
 213 734 213 734 198 726 c 2,47,-1
 113 676 l 1,48,-1
 241 1400 l 1,49,-1
 873 1400 l 1,0,-1
EndSplineSet
Validated: 1
EndChar

StartChar: six
Encoding: 54 54 22
Width: 1000
Flags: W
LayerCount: 2
Fore
SplineSet
237 533 m 0,0,1
 234 498 234 498 232 450 c 0,2,3
 232 343 232 343 266.5 252 c 128,-1,4
 301 161 301 161 365.5 113 c 128,-1,5
 430 65 430 65 499 65 c 0,6,7
 569 65 569 65 633.5 113 c 128,-1,8
 698 161 698 161 732.5 252 c 128,-1,9
 767 343 767 343 767 450 c 0,10,11
 767 558 767 558 732.5 648.5 c 128,-1,12
 698 739 698 739 633.5 787 c 128,-1,13
 569 835 569 835 499 835 c 0,14,15
 430 835 430 835 365.5 787 c 128,-1,16
 301 739 301 739 267 649 c 0,17,18
 245 592 245 592 237 533 c 0,0,1
156.5 872 m 128,-1,20
 202 992 202 992 326 1136 c 128,-1,21
 450 1280 450 1280 605.5 1340 c 128,-1,22
 761 1400 761 1400 869 1400 c 1,23,-1
 869 1355 l 1,24,25
 800 1355 800 1355 680.5 1290 c 128,-1,26
 561 1225 561 1225 452 1089 c 0,27,28
 360 975 360 975 310 863 c 1,29,30
 401 910 401 910 499 910 c 0,31,32
 608 910 608 910 708.5 852 c 128,-1,33
 809 794 809 794 863 685.5 c 128,-1,34
 917 577 917 577 917 450 c 256,35,36
 917 323 917 323 863 214.5 c 128,-1,37
 809 106 809 106 708.5 48 c 128,-1,38
 608 -10 608 -10 499 -10 c 0,39,40
 391 -10 391 -10 290.5 48 c 128,-1,41
 190 106 190 106 136 214.5 c 128,-1,42
 82 323 82 323 82 450 c 0,43,44
 82 547 82 547 96.5 649.5 c 128,-1,19
 111 752 111 752 156.5 872 c 128,-1,20
EndSplineSet
Validated: 1
EndChar

StartChar: seven
Encoding: 55 55 23
Width: 1000
Flags: W
LayerCount: 2
Fore
SplineSet
788 1250 m 1,0,-1
 300 1250 l 2,1,2
 200 1250 200 1250 90 1050 c 1,3,-1
 50 1050 l 1,4,-1
 150 1400 l 1,5,-1
 950 1400 l 1,6,-1
 440 0 l 1,7,-1
 333 0 l 1,8,-1
 788 1250 l 1,0,-1
EndSplineSet
Validated: 1
EndChar

StartChar: eight
Encoding: 56 56 24
Width: 1000
Flags: W
LayerCount: 2
Fore
SplineSet
266.5 525.5 m 128,-1,1
 232 453 232 453 232 375 c 0,2,3
 232 287 232 287 266.5 214.5 c 128,-1,4
 301 142 301 142 365.5 103.5 c 128,-1,5
 430 65 430 65 499 65 c 0,6,7
 569 65 569 65 633.5 103.5 c 128,-1,8
 698 142 698 142 732.5 214.5 c 128,-1,9
 767 287 767 287 767 375 c 0,10,11
 767 453 767 453 732.5 525.5 c 128,-1,12
 698 598 698 598 633.5 636.5 c 128,-1,13
 569 675 569 675 499 675 c 0,14,15
 430 675 430 675 365.5 636.5 c 128,-1,0
 301 598 301 598 266.5 525.5 c 128,-1,1
301.5 1193 m 128,-1,17
 272 1124 272 1124 272 1040 c 0,18,19
 272 966 272 966 301.5 897 c 128,-1,20
 331 828 331 828 385.5 791.5 c 128,-1,21
 440 755 440 755 499 755 c 0,22,23
 559 755 559 755 613.5 791.5 c 128,-1,24
 668 828 668 828 697.5 897 c 128,-1,25
 727 966 727 966 727 1040 c 0,26,27
 727 1124 727 1124 697.5 1193 c 128,-1,28
 668 1262 668 1262 613.5 1298.5 c 128,-1,29
 559 1335 559 1335 499 1335 c 0,30,31
 440 1335 440 1335 385.5 1298.5 c 128,-1,16
 331 1262 331 1262 301.5 1193 c 128,-1,17
671 718 m 1,32,33
 690 711 690 711 709 702 c 0,34,35
 809 653 809 653 863 563 c 128,-1,36
 917 473 917 473 917 375 c 0,37,38
 917 268 917 268 863 177.5 c 128,-1,39
 809 87 809 87 708.5 38.5 c 128,-1,40
 608 -10 608 -10 499 -10 c 0,41,42
 391 -10 391 -10 290.5 38.5 c 128,-1,43
 190 87 190 87 136 177.5 c 128,-1,44
 82 268 82 268 82 375 c 0,45,46
 82 473 82 473 136 563 c 128,-1,47
 190 653 190 653 291 702 c 0,48,49
 309 711 309 711 328 718 c 1,50,51
 319 722 319 722 311 727 c 0,52,53
 220 773 220 773 171 859.5 c 128,-1,54
 122 946 122 946 122 1040 c 0,55,56
 122 1144 122 1144 171 1230.5 c 128,-1,57
 220 1317 220 1317 310.5 1363.5 c 128,-1,58
 401 1410 401 1410 499 1410 c 0,59,60
 598 1410 598 1410 688.5 1363.5 c 128,-1,61
 779 1317 779 1317 828 1230.5 c 128,-1,62
 877 1144 877 1144 877 1040 c 0,63,64
 877 946 877 946 828 859.5 c 128,-1,65
 779 773 779 773 689 727 c 0,66,67
 680 722 680 722 671 718 c 1,32,33
EndSplineSet
Validated: 1
EndChar

StartChar: nine
Encoding: 57 57 25
Width: 1000
Flags: W
LayerCount: 2
Fore
SplineSet
762 867 m 0,0,1
 765 902 765 902 767 950 c 0,2,3
 767 1057 767 1057 732.5 1148 c 128,-1,4
 698 1239 698 1239 633.5 1287 c 128,-1,5
 569 1335 569 1335 500 1335 c 0,6,7
 430 1335 430 1335 365.5 1287 c 128,-1,8
 301 1239 301 1239 266.5 1148 c 128,-1,9
 232 1057 232 1057 232 950 c 0,10,11
 232 842 232 842 266.5 751.5 c 128,-1,12
 301 661 301 661 365.5 613 c 128,-1,13
 430 565 430 565 500 565 c 0,14,15
 569 565 569 565 633.5 613 c 128,-1,16
 698 661 698 661 733 752 c 0,17,18
 754 808 754 808 762 867 c 0,0,1
842.5 528 m 128,-1,20
 797 408 797 408 673 264 c 128,-1,21
 549 120 549 120 393.5 60 c 128,-1,22
 238 0 238 0 130 0 c 1,23,-1
 130 45 l 1,24,25
 199 45 199 45 318.5 110 c 128,-1,26
 438 175 438 175 548 311 c 0,27,28
 639 425 639 425 689 537 c 1,29,30
 598 490 598 490 500 490 c 0,31,32
 391 490 391 490 290.5 548 c 128,-1,33
 190 606 190 606 136 714.5 c 128,-1,34
 82 823 82 823 82 950 c 256,35,36
 82 1077 82 1077 136 1185.5 c 128,-1,37
 190 1294 190 1294 290.5 1352 c 128,-1,38
 391 1410 391 1410 500 1410 c 0,39,40
 608 1410 608 1410 708.5 1352 c 128,-1,41
 809 1294 809 1294 863 1185.5 c 128,-1,42
 917 1077 917 1077 917 950 c 0,43,44
 917 853 917 853 902.5 750.5 c 128,-1,19
 888 648 888 648 842.5 528 c 128,-1,20
EndSplineSet
Validated: 1
EndChar

StartChar: less
Encoding: 60 60 28
Width: 1200
Flags: W
LayerCount: 2
Fore
SplineSet
100 740 m 1,0,-1
 1100 1104 l 1,1,-1
 1100 1024 l 1,2,-1
 209 700 l 1,3,-1
 1100 376 l 1,4,-1
 1100 296 l 1,5,-1
 100 661 l 1,6,-1
 100 740 l 1,0,-1
EndSplineSet
Validated: 1
EndChar

StartChar: equal
Encoding: 61 61 29
Width: 1200
Flags: W
LayerCount: 2
Fore
SplineSet
100 512 m 1,0,-1
 100 587 l 1,1,-1
 1100 587 l 1,2,-1
 1100 512 l 1,3,-1
 100 512 l 1,0,-1
100 812 m 1,4,-1
 100 887 l 1,5,-1
 1100 887 l 1,6,-1
 1100 812 l 1,7,-1
 100 812 l 1,4,-1
EndSplineSet
Validated: 1
EndChar

StartChar: greater
Encoding: 62 62 30
Width: 1200
Flags: W
LayerCount: 2
Fore
SplineSet
1100 661 m 1,0,-1
 100 296 l 1,1,-1
 100 376 l 1,2,-1
 991 700 l 1,3,-1
 100 1024 l 1,4,-1
 100 1104 l 1,5,-1
 1100 740 l 1,6,-1
 1100 661 l 1,0,-1
EndSplineSet
Validated: 1
EndChar

StartChar: question
Encoding: 63 63 31
Width: 900
Flags: W
LayerCount: 2
Fore
SplineSet
450 220 m 256,0,1
 479 220 479 220 505.5 206 c 128,-1,2
 532 192 532 192 546 165.5 c 128,-1,3
 560 139 560 139 560 110 c 256,4,5
 560 81 560 81 546 54.5 c 128,-1,6
 532 28 532 28 505.5 14 c 128,-1,7
 479 0 479 0 450 0 c 256,8,9
 421 0 421 0 394.5 14 c 128,-1,10
 368 28 368 28 354 54.5 c 128,-1,11
 340 81 340 81 340 110 c 256,12,13
 340 139 340 139 354 165.5 c 128,-1,14
 368 192 368 192 394.5 206 c 128,-1,15
 421 220 421 220 450 220 c 256,0,1
465 400 m 1,16,-1
 406 400 l 1,17,18
 412 518 412 518 435.5 595.5 c 128,-1,19
 459 673 459 673 532 810 c 0,20,21
 590 916 590 916 620 973 c 128,-1,22
 650 1030 650 1030 650 1088 c 0,23,24
 650 1217 650 1217 572.5 1287.5 c 128,-1,25
 495 1358 495 1358 402 1358 c 0,26,27
 319 1358 319 1358 271.5 1319.5 c 128,-1,28
 224 1281 224 1281 224 1236 c 0,29,30
 224 1201 224 1201 252.5 1150.5 c 128,-1,31
 281 1100 281 1100 281 1074 c 0,32,33
 281 1040 281 1040 259 1017 c 128,-1,34
 237 994 237 994 206 994 c 0,35,36
 166 994 166 994 133 1033 c 128,-1,37
 100 1072 100 1072 100 1141 c 0,38,39
 100 1247 100 1247 192.5 1328.5 c 128,-1,40
 285 1410 285 1410 443 1410 c 0,41,42
 639 1410 639 1410 731 1298 c 0,43,44
 800 1215 800 1215 800 1105 c 0,45,46
 800 1036 800 1036 769 964 c 128,-1,47
 738 892 738 892 651 795 c 0,48,49
 513 641 513 641 492 576.5 c 128,-1,50
 471 512 471 512 465 400 c 1,16,-1
EndSplineSet
Validated: 1
EndChar

StartChar: at
Encoding: 64 64 32
Width: 1939
Flags: W
LayerCount: 2
Fore
SplineSet
725.5 638.5 m 128,-1,1
 673 548 673 548 653 450 c 0,2,3
 643 398 643 398 643 348 c 0,4,5
 643 304 643 304 651 262 c 0,6,7
 667 171 667 171 721.5 123 c 128,-1,8
 776 75 776 75 845 75 c 0,9,10
 915 75 915 75 989.5 123 c 128,-1,11
 1064 171 1064 171 1116.5 262 c 128,-1,12
 1169 353 1169 353 1188 450 c 0,13,14
 1199 504 1199 504 1199 555 c 0,15,16
 1199 598 1199 598 1192 639 c 0,17,18
 1175 729 1175 729 1120 777 c 128,-1,19
 1065 825 1065 825 995 825 c 0,20,21
 926 825 926 825 852 777 c 128,-1,0
 778 729 778 729 725.5 638.5 c 128,-1,1
1443 139 m 0,22,23
 1447 142 1447 142 1452 145 c 0,24,25
 1554 218 1554 218 1627 382 c 128,-1,26
 1700 546 1700 546 1700 724 c 0,27,28
 1700 905 1700 905 1617.5 1050 c 128,-1,29
 1535 1195 1535 1195 1384.5 1277.5 c 128,-1,30
 1234 1360 1234 1360 1052 1360 c 0,31,32
 821 1360 821 1360 623 1232.5 c 128,-1,33
 425 1105 425 1105 312.5 875 c 128,-1,34
 200 645 200 645 200 387 c 0,35,36
 200 157 200 157 298.5 -31 c 128,-1,37
 397 -219 397 -219 581 -314.5 c 128,-1,38
 765 -410 765 -410 977 -410 c 0,39,40
 1240 -410 1240 -410 1452.5 -270 c 128,-1,41
 1665 -130 1665 -130 1781 141 c 1,42,-1
 1839 141 l 1,43,44
 1749 -133 1749 -133 1512 -296.5 c 128,-1,45
 1275 -460 1275 -460 972 -460 c 0,46,47
 734 -460 734 -460 530 -354 c 128,-1,48
 326 -248 326 -248 213 -41.5 c 128,-1,49
 100 165 100 165 100 413 c 0,50,51
 100 687 100 687 224 915.5 c 128,-1,52
 348 1144 348 1144 571.5 1277 c 128,-1,53
 795 1410 795 1410 1046 1410 c 0,54,55
 1253 1410 1253 1410 1419.5 1320 c 128,-1,56
 1586 1230 1586 1230 1673 1065.5 c 128,-1,57
 1760 901 1760 901 1760 706 c 0,58,59
 1760 523 1760 523 1678.5 343.5 c 128,-1,60
 1597 164 1597 164 1471 82 c 0,61,62
 1423 51 1423 51 1391 33 c 0,63,64
 1330 0 1330 0 1274 0 c 0,65,66
 1228 0 1228 0 1189.5 25.5 c 128,-1,67
 1151 51 1151 51 1139 99 c 0,68,69
 1137 105 1137 105 1136 113 c 1,70,71
 1097 82 1097 82 1052 58 c 0,72,73
 939 0 939 0 830 0 c 0,74,75
 722 0 722 0 633.5 58 c 128,-1,76
 545 116 545 116 513 225 c 0,77,78
 493 288 493 288 493 355 c 0,79,80
 493 402 493 402 503 450 c 0,81,82
 527 567 527 567 602.5 675.5 c 128,-1,83
 678 784 678 784 790 842 c 128,-1,84
 902 900 902 900 1010 900 c 0,85,86
 1119 900 1119 900 1208 842 c 0,87,88
 1212 839 1212 839 1216 837 c 2,89,-1
 1378 900 l 1,90,-1
 1428 900 l 1,91,-1
 1302 267 l 2,92,93
 1294 229 1294 229 1294 201 c 0,94,95
 1294 165 1294 165 1308 147 c 0,96,97
 1332 116 1332 116 1378 116 c 0,98,99
 1408 116 1408 116 1443 139 c 0,22,23
EndSplineSet
Validated: 1
EndChar

StartChar: D
Encoding: 68 8558 36
AltUni2: 00e745.ffffffff.0 0013a0.ffffffff.0 000044.ffffffff.0
Width: 1047
Flags: W
LayerCount: 2
Fore
SplineSet
14 676 m 1
 1032 676 l 1
 1032 646 l 1
 14 646 l 1
 14 676 l 1
EndSplineSet
Refer: 139 11034 N 0.6 0 0 0.6 66 -370 2
Refer: 139 11034 N 0.6 0 0 0.6 66 830 2
EndChar

StartChar: K
Encoding: 75 8490 43
AltUni2: 00e74f.ffffffff.0 0016d5.ffffffff.0 0013e6.ffffffff.0 00039a.ffffffff.0 00004b.ffffffff.0
Width: 1502
Flags: W
LayerCount: 2
Fore
SplineSet
88 1496 m 1
 1450 1496 l 1
 1450 1434 l 1
 88 1434 l 1
 88 1496 l 1
EndSplineSet
Refer: 56 68627 N 1 0 0 1 0 -150 2
EndChar

StartChar: S
Encoding: 83 66371 51
AltUni2: 010296.ffffffff.0 00e75b.ffffffff.0 0013da.ffffffff.0 0010bd.ffffffff.0 00054f.ffffffff.0 000405.ffffffff.0 000053.ffffffff.0
Width: 1001
Flags: W
AnchorPoint: "Anchor-12" 500 700 basechar 0
AnchorPoint: "Anchor-11" 500 700 basechar 0
AnchorPoint: "Anchor-9" 500 0 basechar 0
AnchorPoint: "Anchor-8" 500 1450 basechar 0
LayerCount: 2
Fore
SplineSet
861 1410 m 1,0,-1
 861 947 l 1,1,-1
 824 947 l 1,2,3
 806 1080 806 1080 759.5 1159 c 128,-1,4
 713 1238 713 1238 627 1274 c 128,-1,5
 541 1310 541 1310 449 1310 c 0,6,7
 345 1310 345 1310 277 1258 c 128,-1,8
 209 1206 209 1206 209 1116 c 0,9,10
 209 1054 209 1054 252 1004 c 1,11,12
 304 930 304 930 527 807 c 0,13,14
 717 706 717 706 796.5 652 c 128,-1,15
 876 598 876 598 913.5 525 c 128,-1,16
 951 452 951 452 951 372 c 0,17,18
 951 210 951 210 831.5 100 c 128,-1,19
 712 -10 712 -10 524 -10 c 0,20,21
 465 -10 465 -10 413 -1 c 0,22,23
 382 4 382 4 284.5 35 c 128,-1,24
 187 66 187 66 161 66 c 0,25,26
 136 66 136 66 121.5 51 c 128,-1,27
 107 36 107 36 100 -10 c 1,28,-1
 63 -10 l 1,29,-1
 63 449 l 1,30,-1
 100 449 l 1,31,32
 126 305 126 305 170 233.5 c 128,-1,33
 214 162 214 162 304.5 126 c 128,-1,34
 395 90 395 90 503 90 c 0,35,36
 628 90 628 90 700.5 143.5 c 128,-1,37
 773 197 773 197 773 296 c 0,38,39
 773 346 773 346 745.5 396 c 128,-1,40
 718 446 718 446 660 490 c 0,41,42
 621 519 621 519 447 615.5 c 128,-1,43
 273 712 273 712 199.5 769 c 128,-1,44
 126 826 126 826 88 895.5 c 128,-1,45
 50 965 50 965 50 1048 c 0,46,47
 50 1202 50 1202 162 1306 c 128,-1,48
 274 1410 274 1410 447 1410 c 0,49,50
 555 1410 555 1410 676 1358 c 0,51,52
 732 1333 732 1333 755 1333 c 0,53,54
 781 1333 781 1333 797.5 1348.5 c 128,-1,55
 814 1364 814 1364 824 1410 c 1,56,-1
 861 1410 l 1,0,-1
EndSplineSet
Validated: 1
EndChar

StartChar: T
Encoding: 84 128872 52
AltUni2: 01092f.ffffffff.0 010344.ffffffff.0 010315.ffffffff.0 0102b1.ffffffff.0 010297.ffffffff.0 00e75d.ffffffff.0 002ca6.ffffffff.0 0013a2.ffffffff.0 000422.ffffffff.0 0003a4.ffffffff.0 000054.ffffffff.0
Width: 1400
Flags: W
AnchorPoint: "Anchor-12" 700 700 basechar 0
AnchorPoint: "Anchor-11" 700 700 basechar 0
AnchorPoint: "Anchor-9" 700 0 basechar 0
AnchorPoint: "Anchor-8" 700 1450 basechar 0
LayerCount: 2
Fore
SplineSet
800 200 m 2,0,1
 800 150 800 150 840 95 c 128,-1,2
 880 40 880 40 950 40 c 2,3,-1
 1000 40 l 1,4,-1
 1000 0 l 1,5,-1
 400 0 l 1,6,-1
 400 40 l 1,7,-1
 450 40 l 2,8,9
 520 40 520 40 560 95 c 128,-1,10
 600 150 600 150 600 200 c 2,11,-1
 600 1300 l 1,12,-1
 300 1300 l 2,13,14
 200 1300 200 1300 90 1050 c 1,15,-1
 50 1050 l 1,16,-1
 150 1400 l 1,17,-1
 1250 1400 l 1,18,-1
 1350 1050 l 1,19,-1
 1310 1050 l 1,20,21
 1200 1300 1200 1300 1100 1300 c 2,22,-1
 800 1300 l 1,23,-1
 800 200 l 2,0,1
EndSplineSet
Validated: 1
EndChar

StartChar: U
Encoding: 85 1357 53
AltUni2: 00e760.ffffffff.0 000055.ffffffff.0
Width: 1600
Flags: W
AnchorPoint: "Anchor-12" 800 700 basechar 0
AnchorPoint: "Anchor-11" 800 700 basechar 0
AnchorPoint: "Anchor-9" 800 0 basechar 0
AnchorPoint: "Anchor-8" 800 1450 basechar 0
LayerCount: 2
Fore
SplineSet
1550 1400 m 1,0,-1
 1550 1360 l 1,1,-1
 1500 1360 l 2,2,3
 1430 1360 1430 1360 1390 1305 c 128,-1,4
 1350 1250 1350 1250 1350 1200 c 2,5,-1
 1350 490 l 2,6,7
 1350 290 1350 290 1200 140 c 128,-1,8
 1050 -10 1050 -10 850 -10 c 0,9,10
 550 -10 550 -10 400 155 c 128,-1,11
 250 320 250 320 250 540 c 2,12,-1
 250 1200 l 2,13,14
 250 1250 250 1250 210 1305 c 128,-1,15
 170 1360 170 1360 100 1360 c 2,16,-1
 50 1360 l 1,17,-1
 50 1400 l 1,18,-1
 650 1400 l 1,19,-1
 650 1360 l 1,20,-1
 600 1360 l 2,21,22
 530 1360 530 1360 490 1305 c 128,-1,23
 450 1250 450 1250 450 1200 c 2,24,-1
 450 590 l 2,25,26
 450 370 450 370 550 230 c 128,-1,27
 650 90 650 90 850 90 c 0,28,29
 1000 90 1000 90 1125 215 c 128,-1,30
 1250 340 1250 340 1250 540 c 2,31,-1
 1250 1200 l 2,32,33
 1250 1250 1250 1250 1210 1305 c 128,-1,34
 1170 1360 1170 1360 1100 1360 c 2,35,-1
 1050 1360 l 1,36,-1
 1050 1400 l 1,37,-1
 1550 1400 l 1,0,-1
EndSplineSet
Validated: 1
EndChar

StartChar: V
Encoding: 86 68639 54
AltUni2: 01d20d.ffffffff.0 00e763.ffffffff.0 002d38.ffffffff.0 0013d9.ffffffff.0 000056.ffffffff.0
Width: 1579
Flags: W
AnchorPoint: "Anchor-12" 790 700 basechar 0
AnchorPoint: "Anchor-11" 790 700 basechar 0
AnchorPoint: "Anchor-9" 790 0 basechar 0
AnchorPoint: "Anchor-8" 790 1450 basechar 0
LayerCount: 2
Fore
SplineSet
600 1400 m 1,0,-1
 600 1360 l 1,1,-1
 550 1360 l 2,2,3
 480 1360 480 1360 464 1305 c 0,4,5
 457 1280 457 1280 457 1255 c 0,6,7
 457 1232 457 1232 463 1210 c 2,8,-1
 844 267 l 1,9,-1
 1225 1209 l 2,10,11
 1230 1227 1230 1227 1230 1246 c 0,12,13
 1230 1275 1230 1275 1219 1305 c 0,14,15
 1199 1360 1199 1360 1129 1360 c 2,16,-1
 1079 1360 l 1,17,-1
 1079 1400 l 1,18,-1
 1579 1400 l 1,19,-1
 1579 1360 l 1,20,-1
 1529 1360 l 2,21,22
 1459 1360 1459 1360 1404 1305 c 0,23,24
 1353 1254 1353 1254 1332 1207 c 2,25,-1
 844 0 l 1,26,-1
 736 0 l 1,27,-1
 249 1205 l 2,28,29
 227 1253 227 1253 175 1305 c 0,30,31
 120 1360 120 1360 50 1360 c 2,32,-1
 0 1360 l 1,33,-1
 0 1400 l 1,34,-1
 600 1400 l 1,0,-1
EndSplineSet
Validated: 1
EndChar

StartChar: W
Encoding: 87 5043 55
AltUni2: 00e764.ffffffff.0 00051c.ffffffff.0 000057.ffffffff.0
Width: 2279
Flags: W
AnchorPoint: "Anchor-12" 1140 700 basechar 0
AnchorPoint: "Anchor-11" 1140 700 basechar 0
AnchorPoint: "Anchor-10" 1490 0 basechar 0
AnchorPoint: "Anchor-9" 1140 0 basechar 0
AnchorPoint: "Anchor-8" 1140 1450 basechar 0
LayerCount: 2
Fore
SplineSet
1140 733 m 1,0,-1
 844 0 l 1,1,-1
 736 0 l 1,2,-1
 249 1205 l 2,3,4
 227 1253 227 1253 175 1305 c 0,5,6
 120 1360 120 1360 50 1360 c 2,7,-1
 0 1360 l 1,8,-1
 0 1400 l 1,9,-1
 600 1400 l 1,10,-1
 600 1360 l 1,11,-1
 550 1360 l 2,12,13
 480 1360 480 1360 464 1305 c 0,14,15
 457 1280 457 1280 457 1255 c 0,16,17
 457 1232 457 1232 463 1210 c 2,18,-1
 844 267 l 1,19,-1
 1086 865 l 1,20,-1
 949 1205 l 2,21,22
 927 1253 927 1253 875 1305 c 0,23,24
 820 1360 820 1360 750 1360 c 2,25,-1
 700 1360 l 1,26,-1
 700 1400 l 1,27,-1
 1300 1400 l 1,28,-1
 1300 1360 l 1,29,-1
 1250 1360 l 2,30,31
 1180 1360 1180 1360 1164 1305 c 0,32,33
 1157 1280 1157 1280 1157 1255 c 0,34,35
 1157 1232 1157 1232 1163 1210 c 2,36,-1
 1544 267 l 1,37,-1
 1925 1209 l 2,38,39
 1930 1227 1930 1227 1930 1246 c 0,40,41
 1930 1275 1930 1275 1919 1305 c 0,42,43
 1899 1360 1899 1360 1829 1360 c 2,44,-1
 1779 1360 l 1,45,-1
 1779 1400 l 1,46,-1
 2279 1400 l 1,47,-1
 2279 1360 l 1,48,-1
 2229 1360 l 2,49,50
 2159 1360 2159 1360 2104 1305 c 0,51,52
 2053 1254 2053 1254 2032 1207 c 2,53,-1
 1544 0 l 1,54,-1
 1436 0 l 1,55,-1
 1140 733 l 1,0,-1
EndSplineSet
Validated: 1
EndChar

StartChar: X
Encoding: 88 68627 56
AltUni2: 010a69.ffffffff.0 010347.ffffffff.0 010322.ffffffff.0 010317.ffffffff.0 0102b4.ffffffff.0 010290.ffffffff.0 002d5d.ffffffff.0 002cac.ffffffff.0 0016b7.ffffffff.0 000425.ffffffff.0 0003a7.ffffffff.0 000058.ffffffff.0
Width: 1502
Flags: W
AnchorPoint: "Anchor-12" 751 700 basechar 0
AnchorPoint: "Anchor-11" 751 700 basechar 0
AnchorPoint: "Anchor-10" 1100 0 basechar 0
AnchorPoint: "Anchor-9" 751 0 basechar 0
AnchorPoint: "Anchor-8" 751 1450 basechar 0
LayerCount: 2
Fore
SplineSet
682 1400 m 1,0,-1
 682 1360 l 1,1,-1
 632 1360 l 2,2,3
 562 1360 562 1360 557 1305 c 0,4,5
 556 1296 556 1296 556 1287 c 0,6,7
 556 1244 556 1244 575 1205 c 2,8,-1
 787 837 l 1,9,-1
 1047 1209 l 1,10,11
 1072 1255 1072 1255 1072 1305 c 0,12,13
 1072 1360 1072 1360 1002 1360 c 2,14,-1
 952 1360 l 1,15,-1
 952 1400 l 1,16,-1
 1452 1400 l 1,17,-1
 1452 1360 l 1,18,-1
 1402 1360 l 2,19,20
 1332 1360 1332 1360 1263 1305 c 0,21,22
 1206 1260 1206 1260 1175 1218 c 2,23,-1
 1162 1200 l 1,24,-1
 842 742 l 1,25,-1
 1161 189 l 2,26,27
 1190 144 1190 144 1242 95 c 0,28,29
 1300 40 1300 40 1370 40 c 2,30,-1
 1420 40 l 1,31,-1
 1420 0 l 1,32,-1
 820 0 l 1,33,-1
 820 40 l 1,34,-1
 870 40 l 2,35,36
 940 40 940 40 945 95 c 0,37,38
 946 104 946 104 946 113 c 0,39,40
 946 156 946 156 926 196 c 2,41,-1
 715 562 l 1,42,-1
 462 200 l 2,43,44
 430 150 430 150 430 95 c 256,45,46
 430 40 430 40 500 40 c 2,47,-1
 550 40 l 1,48,-1
 550 0 l 1,49,-1
 50 0 l 1,50,-1
 50 40 l 1,51,-1
 100 40 l 2,52,53
 170 40 170 40 235 95 c 0,54,55
 296 146 296 146 336 194 c 1,56,-1
 660 657 l 1,57,-1
 345 1205 l 1,58,59
 309 1253 309 1253 257 1305 c 0,60,61
 202 1360 202 1360 132 1360 c 2,62,-1
 82 1360 l 1,63,-1
 82 1400 l 1,64,-1
 682 1400 l 1,0,-1
EndSplineSet
Validated: 1
EndChar

StartChar: Y
Encoding: 89 68640 57
AltUni2: 010316.ffffffff.0 0102b2.ffffffff.0 00e766.ffffffff.0 002ca8.ffffffff.0 0004ae.ffffffff.0 0003a5.ffffffff.0 000059.ffffffff.0
Width: 1652
Flags: W
AnchorPoint: "Anchor-12" 826 700 basechar 0
AnchorPoint: "Anchor-11" 826 700 basechar 0
AnchorPoint: "Anchor-9" 826 0 basechar 0
AnchorPoint: "Anchor-8" 826 1450 basechar 0
LayerCount: 2
Fore
SplineSet
313 1202 m 2,0,1
 279 1251 279 1251 225 1305 c 0,2,3
 170 1360 170 1360 100 1360 c 2,4,-1
 50 1360 l 1,5,-1
 50 1400 l 1,6,-1
 650 1400 l 1,7,-1
 650 1360 l 1,8,-1
 600 1360 l 2,9,10
 530 1360 530 1360 525 1305 c 0,11,12
 524 1298 524 1298 524 1291 c 0,13,14
 524 1250 524 1250 545 1212 c 2,15,-1
 858 729 l 1,16,-1
 1190 1203 l 2,17,18
 1222 1252 1222 1252 1222 1305 c 0,19,20
 1222 1360 1222 1360 1152 1360 c 2,21,-1
 1102 1360 l 1,22,-1
 1102 1400 l 1,23,-1
 1602 1400 l 1,24,-1
 1602 1360 l 1,25,-1
 1552 1360 l 2,26,27
 1482 1360 1482 1360 1412 1305 c 0,28,29
 1359 1263 1359 1263 1327 1224 c 2,30,-1
 920 643 l 1,31,-1
 920 200 l 2,32,33
 920 150 920 150 960 95 c 128,-1,34
 1000 40 1000 40 1070 40 c 2,35,-1
 1120 40 l 1,36,-1
 1120 0 l 1,37,-1
 520 0 l 1,38,-1
 520 40 l 1,39,-1
 570 40 l 2,40,41
 640 40 640 40 680 95 c 128,-1,42
 720 150 720 150 720 200 c 2,43,-1
 720 575 l 1,44,-1
 313 1202 l 2,0,1
EndSplineSet
Validated: 1
EndChar

StartChar: Z
Encoding: 90 5059 58
AltUni2: 000396.ffffffff.0 00005a.ffffffff.0
Width: 1326
Flags: W
AnchorPoint: "Anchor-12" 663 700 basechar 0
AnchorPoint: "Anchor-11" 663 700 basechar 0
AnchorPoint: "Anchor-9" 663 0 basechar 0
AnchorPoint: "Anchor-8" 663 1450 basechar 0
LayerCount: 2
Fore
SplineSet
365 100 m 1,0,-1
 1026 100 l 2,1,2
 1126 100 1126 100 1236 350 c 1,3,-1
 1276 350 l 1,4,-1
 1176 0 l 1,5,-1
 50 0 l 1,6,-1
 961 1300 l 1,7,-1
 300 1300 l 2,8,9
 200 1300 200 1300 90 1050 c 1,10,-1
 50 1050 l 1,11,-1
 150 1400 l 1,12,-1
 1276 1400 l 1,13,-1
 365 100 l 1,0,-1
EndSplineSet
Validated: 1
EndChar

StartChar: bracketleft
Encoding: 91 91 59
Width: 550
Flags: W
LayerCount: 2
Fore
SplineSet
500 -500 m 5,0,-1
 100 -500 l 5,1,-1
 100 1600 l 5,2,-1
 500 1600 l 5,3,-1
 500 1525 l 5,4,-1
 200 1525 l 5,5,-1
 200 -425 l 5,6,-1
 500 -425 l 5,7,-1
 500 -500 l 5,0,-1
EndSplineSet
Validated: 1
EndChar

StartChar: backslash
Encoding: 92 10741 60
AltUni2: 00005c.ffffffff.0
Width: 790
Flags: W
LayerCount: 2
Fore
SplineSet
610 0 m 1,0,-1
 100 1400 l 1,1,-1
 180 1400 l 1,2,-1
 690 0 l 1,3,-1
 610 0 l 1,0,-1
EndSplineSet
Validated: 1
EndChar

StartChar: bracketright
Encoding: 93 93 61
Width: 550
Flags: W
LayerCount: 2
Fore
SplineSet
50 -425 m 1,0,-1
 350 -425 l 1,1,-1
 350 1525 l 1,2,-1
 50 1525 l 1,3,-1
 50 1600 l 1,4,-1
 450 1600 l 1,5,-1
 450 -500 l 1,6,-1
 50 -500 l 1,7,-1
 50 -425 l 1,0,-1
EndSplineSet
Validated: 1
EndChar

StartChar: asciicircum
Encoding: 94 94 62
Width: 790
Flags: W
LayerCount: 2
Fore
SplineSet
395 1290 m 1,0,-1
 180 700 l 1,1,-1
 100 700 l 1,2,-1
 355 1400 l 1,3,-1
 435 1400 l 1,4,-1
 690 700 l 1,5,-1
 610 700 l 1,6,-1
 395 1290 l 1,0,-1
EndSplineSet
Validated: 1
EndChar

StartChar: underscore
Encoding: 95 95 63
Width: 1000
Flags: W
LayerCount: 2
Fore
SplineSet
1000 -75 m 1,0,-1
 0 -75 l 1,1,-1
 0 0 l 1,2,-1
 1000 0 l 1,3,-1
 1000 -75 l 1,0,-1
EndSplineSet
Validated: 1
EndChar

StartChar: grave
Encoding: 96 11519 64
AltUni2: 001fef.ffffffff.0 0002cb.ffffffff.0 000060.ffffffff.0
Width: 600
Flags: W
LayerCount: 2
Fore
SplineSet
322 1400 m 1,0,-1
 500 1050 l 1,1,-1
 450 1050 l 1,2,-1
 100 1400 l 1,3,-1
 322 1400 l 1,0,-1
EndSplineSet
Validated: 1
EndChar

StartChar: a
Encoding: 97 1072 65
AltUni2: 000061.ffffffff.0
Width: 841
Flags: W
AnchorPoint: "Anchor-12" 421 450 basechar 0
AnchorPoint: "Anchor-11" 421 700 basechar 0
AnchorPoint: "Anchor-10" 650 0 basechar 0
AnchorPoint: "Anchor-9" 421 0 basechar 0
AnchorPoint: "Anchor-8" 421 1000 basechar 0
LayerCount: 2
Fore
SplineSet
506 554 m 1,0,-1
 506 680 l 2,1,2
 506 737 506 737 472 791 c 128,-1,3
 438 845 438 845 379 845 c 0,4,5
 319 845 319 845 289.5 832 c 128,-1,6
 260 819 260 819 238 784 c 0,7,8
 216 750 216 750 216 720 c 0,9,10
 216 718 216 718 217 716 c 2,11,-1
 217 711 l 2,12,13
 217 681 217 681 200 650 c 0,14,15
 185 624 185 624 148 624 c 0,16,17
 138 624 138 624 126 627 c 0,18,19
 70 636 70 636 70 692 c 0,20,21
 70 708 70 708 75 726 c 0,22,23
 119 834 119 834 194.5 872 c 128,-1,24
 270 910 270 910 379 910 c 0,25,26
 487 910 487 910 557.5 842 c 128,-1,27
 628 774 628 774 642 675.5 c 128,-1,28
 656 577 656 577 656 440 c 2,29,-1
 656 257 l 2,30,31
 656 168 656 168 671 137 c 128,-1,32
 686 106 686 106 732 106 c 0,33,34
 765 106 765 106 775 113.5 c 128,-1,35
 785 121 785 121 802 161 c 1,36,-1
 841 161 l 1,37,38
 806 63 806 63 763 26.5 c 128,-1,39
 720 -10 720 -10 652 -10 c 0,40,41
 606 -10 606 -10 577 15.5 c 128,-1,42
 548 41 548 41 527 89 c 0,43,44
 520 105 520 105 515 124 c 1,45,46
 386 27 386 27 354 12 c 0,47,48
 304 -10 304 -10 249 -10 c 0,49,50
 162 -10 162 -10 106 48 c 128,-1,51
 50 106 50 106 50 210 c 0,52,53
 50 270 50 270 77 313 c 0,54,55
 115 374 115 374 208 427 c 0,56,57
 298 479 298 479 506 554 c 1,0,-1
508 177 m 1,58,59
 506 203 506 203 506 235 c 2,60,-1
 506 499 l 1,61,62
 376 448 376 448 337 427 c 0,63,64
 265 388 265 388 232.5 345.5 c 128,-1,65
 200 303 200 303 200 252 c 0,66,67
 200 178 200 178 241 135.5 c 128,-1,68
 282 93 282 93 333 93 c 0,69,70
 400 93 400 93 508 177 c 1,58,59
EndSplineSet
Validated: 1
EndChar

StartChar: b
Encoding: 98 98 66
Width: 1005
Flags: W
AnchorPoint: "Anchor-12" 503 450 basechar 0
AnchorPoint: "Anchor-11" 503 700 basechar 0
AnchorPoint: "Anchor-9" 503 0 basechar 0
AnchorPoint: "Anchor-8" 503 1450 basechar 0
LayerCount: 2
Fore
SplineSet
344.5 648.5 m 128,-1,1
 310 558 310 558 310 450 c 2,2,-1
 310 190 l 1,3,4
 379 111 379 111 433.5 88 c 128,-1,5
 488 65 488 65 557 65 c 0,6,7
 607 65 607 65 671.5 113 c 128,-1,8
 736 161 736 161 770.5 252 c 128,-1,9
 805 343 805 343 805 450 c 0,10,11
 805 558 805 558 770.5 648.5 c 128,-1,12
 736 739 736 739 671.5 787 c 128,-1,13
 607 835 607 835 557 835 c 0,14,15
 488 835 488 835 433.5 787 c 128,-1,0
 379 739 379 739 344.5 648.5 c 128,-1,1
160 1110 m 2,16,17
 160 1210 160 1210 150 1245 c 128,-1,18
 140 1280 140 1280 100 1280 c 256,19,20
 60 1280 60 1280 13 1262 c 1,21,-1
 0 1300 l 1,22,-1
 260 1410 l 1,23,-1
 310 1410 l 1,24,-1
 310 815 l 1,25,26
 333 836 333 836 359 852 c 0,27,28
 449 910 449 910 557 910 c 0,29,30
 646 910 646 910 746.5 852 c 128,-1,31
 847 794 847 794 901 685.5 c 128,-1,32
 955 577 955 577 955 450 c 256,33,34
 955 323 955 323 901 214.5 c 128,-1,35
 847 106 847 106 746.5 48 c 128,-1,36
 646 -10 646 -10 557 -10 c 0,37,38
 449 -10 449 -10 358.5 3 c 128,-1,39
 268 16 268 16 160 110 c 1,40,-1
 160 1110 l 2,16,17
EndSplineSet
Validated: 1
EndChar

StartChar: c
Encoding: 99 11429 67
AltUni2: 00217d.ffffffff.0 000441.ffffffff.0 0003f2.ffffffff.0 000063.ffffffff.0
Width: 1507
Flags: W
LayerCount: 2
Fore
SplineSet
1115 1645 m 256,0,1
 1038 1670 1038 1670 966 1620 c 1,2,3
 887 1557 887 1557 847 1437 c 0,4,5
 785 1247 785 1247 787 967 c 2,6,-1
 796 277 l 1,7,8
 805 -12 805 -12 744 -199 c 0,9,10
 668 -433 668 -433 525 -520 c 0,11,12
 395 -597 395 -597 278 -559 c 0,13,14
 162 -522 162 -522 104 -439 c 0,15,16
 47 -365 47 -365 67 -288 c 0,17,18
 78 -256 78 -256 114 -231 c 0,19,20
 152 -206 152 -206 190 -218 c 0,21,22
 282 -248 282 -248 263 -364 c 0,23,24
 243 -478 243 -478 338 -509 c 0,25,26
 403 -530 403 -530 480 -472 c 1,27,28
 555 -422 555 -422 597 -297 c 0,29,30
 659 -108 659 -108 656 180 c 2,31,-1
 646 866 l 2,32,33
 638 1151 638 1151 700 1340 c 0,34,35
 774 1568 774 1568 913 1656 c 0,36,37
 1039 1738 1039 1738 1175 1694 c 0,38,39
 1283 1659 1283 1659 1337 1575 c 0,40,41
 1396 1486 1396 1486 1373 1419 c 0,42,43
 1360 1377 1360 1377 1326 1359 c 0,44,45
 1291 1337 1291 1337 1251 1349 c 0,46,47
 1147 1383 1147 1383 1170 1525 c 1,48,49
 1192 1620 1192 1620 1115 1645 c 256,0,1
EndSplineSet
EndChar

StartChar: i
Encoding: 105 1110 73
AltUni2: 000069.ffffffff.0
Width: 590
Flags: W
AnchorPoint: "Anchor-12" 295 450 basechar 0
AnchorPoint: "Anchor-11" 295 700 basechar 0
AnchorPoint: "Anchor-9" 295 0 basechar 0
LayerCount: 2
Fore
SplineSet
280 1335 m 256,0,1
 309 1335 309 1335 335.5 1321 c 0,2,3
 362 1307 362 1307 376 1280.5 c 0,4,5
 390 1254 390 1254 390 1225 c 256,6,7
 390 1196 390 1196 376 1169.5 c 0,8,9
 362 1143 362 1143 335.5 1129 c 0,10,11
 309 1115 309 1115 280 1115 c 256,12,13
 251 1115 251 1115 224.5 1129 c 0,14,15
 198 1143 198 1143 184 1169.5 c 0,16,17
 170 1196 170 1196 170 1225 c 256,18,19
 170 1254 170 1254 184 1280.5 c 0,20,21
 198 1307 198 1307 224.5 1321 c 0,22,23
 251 1335 251 1335 280 1335 c 256,0,1
370 170 m 2,24,25
 370 120 370 120 395 80 c 0,26,27
 420 40 420 40 490 40 c 2,28,-1
 540 40 l 1,29,-1
 540 0 l 1,30,-1
 50 0 l 1,31,-1
 50 40 l 1,32,-1
 100 40 l 2,33,34
 170 40 170 40 195 80 c 0,35,36
 220 120 220 120 220 170 c 2,37,-1
 220 610 l 2,38,39
 220 710 220 710 210 745 c 0,40,41
 200 780 200 780 160 780 c 256,42,43
 120 780 120 780 73 762 c 1,44,-1
 60 800 l 1,45,-1
 320 910 l 1,46,-1
 370 910 l 1,47,-1
 370 170 l 2,24,25
EndSplineSet
Validated: 513
Substitution2: "Single Substitution lookup 7 subtable" dotlessi
EndChar

StartChar: j
Encoding: 106 1112 74
AltUni2: 0003f3.ffffffff.0 00006a.ffffffff.0
Width: 530
Flags: W
AnchorPoint: "Anchor-12" 295 450 basechar 0
AnchorPoint: "Anchor-11" 295 700 basechar 0
AnchorPoint: "Anchor-9" 265 -500 basechar 0
LayerCount: 2
Fore
SplineSet
270 1335 m 256,0,1
 299 1335 299 1335 325.5 1321 c 0,2,3
 352 1307 352 1307 366 1280.5 c 0,4,5
 380 1254 380 1254 380 1225 c 256,6,7
 380 1196 380 1196 366 1169.5 c 0,8,9
 352 1143 352 1143 325.5 1129 c 0,10,11
 299 1115 299 1115 270 1115 c 256,12,13
 241 1115 241 1115 214.5 1129 c 0,14,15
 188 1143 188 1143 174 1169.5 c 0,16,17
 160 1196 160 1196 160 1225 c 256,18,19
 160 1254 160 1254 174 1280.5 c 0,20,21
 188 1307 188 1307 214.5 1321 c 0,22,23
 241 1335 241 1335 270 1335 c 256,0,1
360 -47 m 2,24,25
 360 -282 360 -282 267.5 -396 c 0,26,27
 175 -510 175 -510 15 -510 c 0,28,29
 -76 -510 -76 -510 -120 -477 c 0,30,31
 -164 -444 -164 -444 -164 -409 c 256,32,33
 -164 -374 -164 -374 -139.5 -349 c 0,34,35
 -115 -324 -115 -324 -82 -324 c 0,36,37
 -56 -324 -56 -324 -29 -337 c 0,38,39
 -12 -344 -12 -344 36.5 -387.5 c 0,40,41
 85 -431 85 -431 118 -431 c 0,42,43
 142 -431 142 -431 165 -412.5 c 0,44,45
 188 -394 188 -394 199 -350.5 c 0,46,47
 210 -307 210 -307 210 -162 c 2,48,-1
 210 610 l 2,49,50
 210 710 210 710 200 745 c 0,51,52
 190 780 190 780 150 780 c 256,53,54
 110 780 110 780 63 762 c 1,55,-1
 50 800 l 1,56,-1
 310 910 l 1,57,-1
 360 910 l 1,58,-1
 360 -47 l 2,24,25
EndSplineSet
Validated: 513
Substitution2: "Single Substitution lookup 7 subtable" dotlessj
EndChar

StartChar: k
Encoding: 107 107 75
Width: 1180
Flags: W
AnchorPoint: "Anchor-12" 590 700 basechar 0
AnchorPoint: "Anchor-11" 590 700 basechar 0
AnchorPoint: "Anchor-10" 900 0 basechar 0
AnchorPoint: "Anchor-9" 590 0 basechar 0
AnchorPoint: "Anchor-8" 590 1450 basechar 0
LayerCount: 2
Fore
SplineSet
370 345 m 1,0,-1
 370 170 l 2,1,2
 370 120 370 120 395 80 c 128,-1,3
 420 40 420 40 490 40 c 2,4,-1
 540 40 l 1,5,-1
 540 0 l 1,6,-1
 50 0 l 1,7,-1
 50 40 l 1,8,-1
 100 40 l 2,9,10
 170 40 170 40 195 80 c 128,-1,11
 220 120 220 120 220 170 c 2,12,-1
 220 1110 l 2,13,14
 220 1210 220 1210 210 1245 c 128,-1,15
 200 1280 200 1280 160 1280 c 256,16,17
 120 1280 120 1280 73 1262 c 1,18,-1
 60 1300 l 1,19,-1
 320 1410 l 1,20,-1
 370 1410 l 1,21,-1
 370 486 l 1,22,-1
 592 708 l 1,23,24
 632 754 632 754 650 805 c 0,25,26
 655 819 655 819 655 829 c 0,27,28
 655 860 655 860 610 860 c 2,29,-1
 560 860 l 1,30,-1
 560 900 l 1,31,-1
 1040 900 l 1,32,-1
 1040 860 l 1,33,-1
 990 860 l 2,34,35
 930 860 930 860 850 805 c 0,36,37
 802 772 802 772 765 740 c 2,38,-1
 544 519 l 1,39,-1
 863 200 l 2,40,41
 918 150 918 150 993 95 c 128,-1,42
 1068 40 1068 40 1128 40 c 2,43,-1
 1178 40 l 1,44,-1
 1178 0 l 1,45,-1
 669 0 l 1,46,-1
 669 40 l 1,47,-1
 719 40 l 2,48,49
 755 40 755 40 755 60 c 0,50,51
 755 73 755 73 739 95 c 0,52,53
 704 143 704 143 664 187 c 2,54,-1
 438 413 l 1,55,-1
 370 345 l 1,0,-1
EndSplineSet
Validated: 1
EndChar

StartChar: l
Encoding: 108 8572 76
AltUni2: 00006c.ffffffff.0
Width: 590
Flags: W
AnchorPoint: "Anchor-12" 295 700 basechar 0
AnchorPoint: "Anchor-11" 295 700 basechar 0
AnchorPoint: "Anchor-9" 295 0 basechar 0
AnchorPoint: "Anchor-8" 295 1450 basechar 0
LayerCount: 2
Fore
SplineSet
370 170 m 2,0,1
 370 120 370 120 395 80 c 128,-1,2
 420 40 420 40 490 40 c 2,3,-1
 540 40 l 1,4,-1
 540 0 l 1,5,-1
 50 0 l 1,6,-1
 50 40 l 1,7,-1
 100 40 l 2,8,9
 170 40 170 40 195 80 c 128,-1,10
 220 120 220 120 220 170 c 2,11,-1
 220 1110 l 2,12,13
 220 1210 220 1210 210 1245 c 128,-1,14
 200 1280 200 1280 160 1280 c 256,15,16
 120 1280 120 1280 73 1262 c 1,17,-1
 60 1300 l 1,18,-1
 320 1410 l 1,19,-1
 370 1410 l 1,20,-1
 370 170 l 2,0,1
EndSplineSet
Validated: 1
EndChar

StartChar: m
Encoding: 109 8575 77
AltUni2: 00006d.ffffffff.0
Width: 1810
Flags: W
AnchorPoint: "Anchor-12" 905 450 basechar 0
AnchorPoint: "Anchor-11" 905 700 basechar 0
AnchorPoint: "Anchor-10" 1515 0 basechar 0
AnchorPoint: "Anchor-9" 905 0 basechar 0
AnchorPoint: "Anchor-8" 905 1000 basechar 0
LayerCount: 2
Fore
SplineSet
943 699 m 1,0,1
 978 758 978 758 1025 807 c 0,2,3
 1123 910 1123 910 1241 910 c 0,4,5
 1357 910 1357 910 1440.5 852 c 128,-1,6
 1524 794 1524 794 1557 685.5 c 128,-1,7
 1590 577 1590 577 1590 460 c 2,8,-1
 1590 170 l 2,9,10
 1590 120 1590 120 1615 80 c 128,-1,11
 1640 40 1640 40 1710 40 c 2,12,-1
 1760 40 l 1,13,-1
 1760 0 l 1,14,-1
 1270 0 l 1,15,-1
 1270 40 l 1,16,-1
 1320 40 l 2,17,18
 1390 40 1390 40 1415 80 c 128,-1,19
 1440 120 1440 120 1440 170 c 2,20,-1
 1440 460 l 2,21,22
 1440 557 1440 557 1426.5 648 c 128,-1,23
 1413 739 1413 739 1365.5 787 c 128,-1,24
 1318 835 1318 835 1241 835 c 0,25,26
 1162 835 1162 835 1099.5 782 c 128,-1,27
 1037 729 1037 729 1008.5 633 c 128,-1,28
 980 537 980 537 980 440 c 2,29,-1
 980 170 l 2,30,31
 980 120 980 120 1005 80 c 128,-1,32
 1030 40 1030 40 1100 40 c 2,33,-1
 1150 40 l 1,34,-1
 1150 0 l 1,35,-1
 660 0 l 1,36,-1
 660 40 l 1,37,-1
 710 40 l 2,38,39
 780 40 780 40 805 80 c 128,-1,40
 830 120 830 120 830 170 c 2,41,-1
 830 460 l 2,42,43
 830 557 830 557 816.5 648 c 128,-1,44
 803 739 803 739 755.5 787 c 128,-1,45
 708 835 708 835 631 835 c 0,46,47
 552 835 552 835 489.5 782 c 128,-1,48
 427 729 427 729 398.5 633 c 128,-1,49
 370 537 370 537 370 440 c 2,50,-1
 370 170 l 2,51,52
 370 120 370 120 395 80 c 128,-1,53
 420 40 420 40 490 40 c 2,54,-1
 540 40 l 1,55,-1
 540 0 l 1,56,-1
 50 0 l 1,57,-1
 50 40 l 1,58,-1
 100 40 l 2,59,60
 170 40 170 40 195 80 c 128,-1,61
 220 120 220 120 220 170 c 2,62,-1
 220 610 l 2,63,64
 220 710 220 710 210 745 c 128,-1,65
 200 780 200 780 160 780 c 256,66,67
 120 780 120 780 73 762 c 1,68,-1
 60 800 l 1,69,-1
 320 910 l 1,70,-1
 370 910 l 1,71,-1
 370 754 l 1,72,73
 391 782 391 782 415 807 c 0,74,75
 513 910 513 910 631 910 c 0,76,77
 747 910 747 910 831 852 c 0,78,79
 909 798 909 798 943 699 c 1,0,1
EndSplineSet
Validated: 1
EndChar

StartChar: n
Encoding: 110 11542 78
AltUni2: 000578.ffffffff.0 00006e.ffffffff.0
Width: 1200
Flags: W
AnchorPoint: "Anchor-12" 600 450 basechar 0
AnchorPoint: "Anchor-11" 600 700 basechar 0
AnchorPoint: "Anchor-10" 900 0 basechar 0
AnchorPoint: "Anchor-9" 600 0 basechar 0
AnchorPoint: "Anchor-8" 600 1000 basechar 0
LayerCount: 2
Fore
SplineSet
370 170 m 2,0,1
 370 120 370 120 395 80 c 128,-1,2
 420 40 420 40 490 40 c 2,3,-1
 540 40 l 1,4,-1
 540 0 l 1,5,-1
 50 0 l 1,6,-1
 50 40 l 1,7,-1
 100 40 l 2,8,9
 170 40 170 40 195 80 c 128,-1,10
 220 120 220 120 220 170 c 2,11,-1
 220 610 l 2,12,13
 220 710 220 710 210 745 c 128,-1,14
 200 780 200 780 160 780 c 256,15,16
 120 780 120 780 73 762 c 1,17,-1
 60 800 l 1,18,-1
 320 910 l 1,19,-1
 370 910 l 1,20,-1
 370 754 l 1,21,22
 391 782 391 782 415 807 c 0,23,24
 513 910 513 910 631 910 c 0,25,26
 747 910 747 910 830.5 852 c 128,-1,27
 914 794 914 794 947 685.5 c 128,-1,28
 980 577 980 577 980 460 c 2,29,-1
 980 170 l 2,30,31
 980 120 980 120 1005 80 c 128,-1,32
 1030 40 1030 40 1100 40 c 2,33,-1
 1150 40 l 1,34,-1
 1150 0 l 1,35,-1
 660 0 l 1,36,-1
 660 40 l 1,37,-1
 710 40 l 2,38,39
 780 40 780 40 805 80 c 128,-1,40
 830 120 830 120 830 170 c 2,41,-1
 830 460 l 2,42,43
 830 557 830 557 816.5 648 c 128,-1,44
 803 739 803 739 755.5 787 c 128,-1,45
 708 835 708 835 631 835 c 0,46,47
 552 835 552 835 489.5 782 c 128,-1,48
 427 729 427 729 398.5 633 c 128,-1,49
 370 537 370 537 370 440 c 2,50,-1
 370 170 l 2,0,1
EndSplineSet
Validated: 1
EndChar

StartChar: o
Encoding: 111 11423 79
AltUni2: 001d0f.ffffffff.0 0010ff.ffffffff.0 000585.ffffffff.0 00043e.ffffffff.0 0003bf.ffffffff.0 00006f.ffffffff.0
Width: 935
Flags: W
AnchorPoint: "Anchor-12" 467 450 basechar 0
AnchorPoint: "Anchor-11" 467 700 basechar 0
AnchorPoint: "Anchor-9" 467 0 basechar 0
AnchorPoint: "Anchor-8" 467 1000 basechar 0
LayerCount: 2
Fore
SplineSet
467 910 m 0,0,1
 576 910 576 910 676.5 852 c 128,-1,2
 777 794 777 794 831 685.5 c 128,-1,3
 885 577 885 577 885 450 c 256,4,5
 885 323 885 323 831 214.5 c 128,-1,6
 777 106 777 106 676.5 48 c 128,-1,7
 576 -10 576 -10 467 -10 c 0,8,9
 359 -10 359 -10 258.5 48 c 128,-1,10
 158 106 158 106 104 214.5 c 128,-1,11
 50 323 50 323 50 450 c 256,12,13
 50 577 50 577 104 685.5 c 128,-1,14
 158 794 158 794 258.5 852 c 128,-1,15
 359 910 359 910 467 910 c 0,0,1
333.5 787 m 128,-1,17
 269 739 269 739 234.5 648.5 c 128,-1,18
 200 558 200 558 200 450 c 0,19,20
 200 343 200 343 234.5 252 c 128,-1,21
 269 161 269 161 333.5 113 c 128,-1,22
 398 65 398 65 467 65 c 0,23,24
 537 65 537 65 601.5 113 c 128,-1,25
 666 161 666 161 700.5 252 c 128,-1,26
 735 343 735 343 735 450 c 0,27,28
 735 558 735 558 700.5 648.5 c 128,-1,29
 666 739 666 739 601.5 787 c 128,-1,30
 537 835 537 835 467 835 c 0,31,16
 398 835 398 835 333.5 787 c 128,-1,17
EndSplineSet
Validated: 1
EndChar

StartChar: p
Encoding: 112 1088 80
AltUni2: 000070.ffffffff.0
Width: 1105
Flags: W
AnchorPoint: "Anchor-12" 553 450 basechar 0
AnchorPoint: "Anchor-11" 553 700 basechar 0
AnchorPoint: "Anchor-9" 553 -500 basechar 0
AnchorPoint: "Anchor-8" 553 1000 basechar 0
LayerCount: 2
Fore
SplineSet
404.5 648.5 m 128,-1,1
 370 558 370 558 370 450 c 0,2,3
 370 343 370 343 404.5 252 c 128,-1,4
 439 161 439 161 503.5 113 c 128,-1,5
 568 65 568 65 637 65 c 0,6,7
 707 65 707 65 771.5 113 c 128,-1,8
 836 161 836 161 870.5 252 c 128,-1,9
 905 343 905 343 905 450 c 0,10,11
 905 558 905 558 870.5 648.5 c 128,-1,12
 836 739 836 739 771.5 787 c 128,-1,13
 707 835 707 835 637 835 c 0,14,15
 568 835 568 835 503.5 787 c 128,-1,0
 439 739 439 739 404.5 648.5 c 128,-1,1
370 89 m 1,16,-1
 370 -330 l 2,17,18
 370 -380 370 -380 395 -420 c 128,-1,19
 420 -460 420 -460 490 -460 c 2,20,-1
 540 -460 l 1,21,-1
 540 -500 l 1,22,-1
 50 -500 l 1,23,-1
 50 -460 l 1,24,-1
 100 -460 l 2,25,26
 170 -460 170 -460 195 -420 c 128,-1,27
 220 -380 220 -380 220 -330 c 2,28,-1
 220 610 l 2,29,30
 220 710 220 710 210 745 c 128,-1,31
 200 780 200 780 160 780 c 256,32,33
 120 780 120 780 73 762 c 1,34,-1
 60 800 l 1,35,-1
 320 910 l 1,36,-1
 370 910 l 1,37,-1
 370 811 l 1,38,39
 397 834 397 834 429 852 c 0,40,41
 529 910 529 910 637 910 c 0,42,43
 746 910 746 910 846.5 852 c 128,-1,44
 947 794 947 794 1001 685.5 c 128,-1,45
 1055 577 1055 577 1055 450 c 256,46,47
 1055 323 1055 323 1001 214.5 c 128,-1,48
 947 106 947 106 846.5 48 c 128,-1,49
 746 -10 746 -10 637 -10 c 0,50,51
 529 -10 529 -10 429 48 c 0,52,53
 397 66 397 66 370 89 c 1,16,-1
EndSplineSet
Validated: 1
EndChar

StartChar: q
Encoding: 113 1307 81
AltUni2: 000071.ffffffff.0
Width: 1105
Flags: W
AnchorPoint: "Anchor-12" 553 450 basechar 0
AnchorPoint: "Anchor-11" 553 700 basechar 0
AnchorPoint: "Anchor-9" 553 -500 basechar 0
AnchorPoint: "Anchor-8" 553 1000 basechar 0
LayerCount: 2
Fore
SplineSet
467 835 m 0,1,2
 398 835 398 835 333.5 787 c 128,-1,3
 269 739 269 739 234.5 648.5 c 128,-1,4
 200 558 200 558 200 450 c 0,5,6
 200 343 200 343 234.5 252 c 128,-1,7
 269 161 269 161 333.5 113 c 128,-1,8
 398 65 398 65 467 65 c 0,9,10
 537 65 537 65 601.5 113 c 128,-1,11
 666 161 666 161 700.5 252 c 128,-1,12
 735 343 735 343 735 450 c 0,13,14
 735 558 735 558 700.5 648.5 c 128,-1,15
 666 739 666 739 601.5 787 c 128,-1,0
 537 835 537 835 467 835 c 0,1,2
677 48 m 0,17,18
 576 -10 576 -10 467 -10 c 0,19,20
 359 -10 359 -10 258.5 48 c 128,-1,21
 158 106 158 106 104 214.5 c 128,-1,22
 50 323 50 323 50 450 c 256,23,24
 50 577 50 577 104 685.5 c 128,-1,25
 158 794 158 794 258.5 852 c 128,-1,26
 359 910 359 910 467 910 c 0,27,28
 576 910 576 910 677 852 c 0,29,30
 708 834 708 834 735 811 c 1,31,-1
 735 910 l 1,32,-1
 785 910 l 1,33,-1
 1045 800 l 1,34,-1
 1032 762 l 1,35,36
 985 780 985 780 945 780 c 256,37,38
 905 780 905 780 895 745 c 128,-1,39
 885 710 885 710 885 610 c 2,40,-1
 885 -330 l 2,41,42
 885 -380 885 -380 910 -420 c 128,-1,43
 935 -460 935 -460 1005 -460 c 2,44,-1
 1055 -460 l 1,45,-1
 1055 -500 l 1,46,-1
 565 -500 l 1,47,-1
 565 -460 l 1,48,-1
 615 -460 l 2,49,50
 685 -460 685 -460 710 -420 c 128,-1,51
 735 -380 735 -380 735 -330 c 2,52,-1
 735 89 l 1,53,16
 708 66 708 66 677 48 c 0,17,18
EndSplineSet
Validated: 1
EndChar

StartChar: r
Encoding: 114 114 82
Width: 863
Flags: W
AnchorPoint: "Anchor-12" 432 450 basechar 0
AnchorPoint: "Anchor-11" 432 700 basechar 0
AnchorPoint: "Anchor-9" 295 0 basechar 0
AnchorPoint: "Anchor-8" 432 1000 basechar 0
LayerCount: 2
Fore
SplineSet
399 633 m 0,1,2
 370 537 370 537 370 440 c 2,3,-1
 370 170 l 2,4,5
 370 120 370 120 395 80 c 128,-1,6
 420 40 420 40 490 40 c 2,7,-1
 540 40 l 1,8,-1
 540 0 l 1,9,-1
 50 0 l 1,10,-1
 50 40 l 1,11,-1
 100 40 l 2,12,13
 170 40 170 40 195 80 c 128,-1,14
 220 120 220 120 220 170 c 2,15,-1
 220 610 l 2,16,17
 220 710 220 710 210 745 c 128,-1,18
 200 780 200 780 160 780 c 256,19,20
 120 780 120 780 73 762 c 1,21,-1
 60 800 l 1,22,-1
 320 910 l 1,23,-1
 370 910 l 1,24,-1
 370 754 l 1,25,26
 391 782 391 782 415 807 c 0,27,28
 513 910 513 910 631 910 c 2,29,-1
 640 910 l 2,30,31
 708 910 708 910 757 896 c 0,32,33
 774 888 774 888 787 878 c 0,34,35
 813 857 813 857 813 830 c 0,36,37
 813 812 813 812 801 790 c 0,38,39
 773 742 773 742 740 742 c 0,40,41
 737 742 737 742 733 743 c 0,42,43
 696 749 696 749 674 774.5 c 128,-1,44
 652 800 652 800 614 809 c 0,45,46
 604 811 604 811 593 811 c 0,47,48
 563 811 563 811 527 793 c 0,49,50
 478 768 478 768 429 707 c 1,51,0
 411 674 411 674 399 633 c 0,1,2
EndSplineSet
Validated: 1
EndChar

StartChar: s
Encoding: 115 42801 83
AltUni2: 000455.ffffffff.0 000073.ffffffff.0
Width: 700
Flags: W
AnchorPoint: "Anchor-12" 350 450 basechar 0
AnchorPoint: "Anchor-11" 350 700 basechar 0
AnchorPoint: "Anchor-9" 350 0 basechar 0
AnchorPoint: "Anchor-8" 350 1000 basechar 0
LayerCount: 2
Fore
SplineSet
584 910 m 1,0,-1
 584 621 l 1,1,-1
 552 621 l 1,2,3
 516 757 516 757 458.5 806 c 128,-1,4
 401 855 401 855 313 855 c 0,5,6
 246 855 246 855 204.5 821 c 128,-1,7
 163 787 163 787 163 745 c 0,8,9
 163 693 163 693 194 646 c 1,10,11
 224 608 224 608 295 565 c 1,12,-1
 435 500 l 1,13,14
 650 408 650 408 650 258 c 0,15,16
 650 132 650 132 559.5 61 c 128,-1,17
 469 -10 469 -10 356 -10 c 0,18,19
 276 -10 276 -10 172 18 c 0,20,21
 140 27 140 27 120 27 c 0,22,23
 98 27 98 27 86 3 c 1,24,-1
 54 3 l 1,25,-1
 54 306 l 1,26,-1
 96 306 l 1,27,28
 112 176 112 176 188 110.5 c 128,-1,29
 264 45 264 45 358 45 c 0,30,31
 424 45 424 45 466 82.5 c 128,-1,32
 508 120 508 120 508 183 c 0,33,34
 508 247 508 247 466.5 290.5 c 128,-1,35
 425 334 425 334 285.5 400.5 c 128,-1,36
 146 467 146 467 103 521 c 1,37,38
 50 574 50 574 50 654 c 0,39,40
 50 769 50 769 124.5 839.5 c 128,-1,41
 199 910 199 910 317 910 c 0,42,43
 369 910 369 910 443 889 c 0,44,45
 492 875 492 875 508 875 c 0,46,47
 523 875 523 875 532 881.5 c 128,-1,48
 541 888 541 888 552 910 c 1,49,-1
 584 910 l 1,0,-1
EndSplineSet
Validated: 1
EndChar

StartChar: t
Encoding: 116 116 84
Width: 667
Flags: W
AnchorPoint: "Anchor-12" 335 450 basechar 0
AnchorPoint: "Anchor-11" 335 700 basechar 0
AnchorPoint: "Anchor-9" 335 0 basechar 0
AnchorPoint: "Anchor-8" 300 1300 basechar 0
LayerCount: 2
Fore
SplineSet
360 825 m 1,0,-1
 360 257 l 2,1,2
 360 168 360 168 390 137 c 128,-1,3
 420 106 420 106 466 106 c 0,4,5
 499 106 499 106 530 126.5 c 128,-1,6
 561 147 561 147 578 187 c 1,7,-1
 617 187 l 1,8,9
 582 89 582 89 518 39.5 c 128,-1,10
 454 -10 454 -10 386 -10 c 0,11,12
 340 -10 340 -10 296 15.5 c 128,-1,13
 252 41 252 41 231 88.5 c 128,-1,14
 210 136 210 136 210 235 c 2,15,-1
 210 825 l 1,16,-1
 50 825 l 1,17,-1
 50 900 l 1,18,19
 210 900 210 900 310 1200 c 1,20,-1
 360 1200 l 1,21,-1
 360 900 l 1,22,-1
 550 900 l 1,23,-1
 550 825 l 1,24,-1
 360 825 l 1,0,-1
EndSplineSet
Validated: 1
EndChar

StartChar: u
Encoding: 117 1405 85
AltUni2: 000075.ffffffff.0
Width: 1190
Flags: W
AnchorPoint: "Anchor-12" 595 450 basechar 0
AnchorPoint: "Anchor-11" 595 700 basechar 0
AnchorPoint: "Anchor-10" 880 0 basechar 0
AnchorPoint: "Anchor-9" 595 0 basechar 0
AnchorPoint: "Anchor-8" 595 1000 basechar 0
LayerCount: 2
Fore
SplineSet
830 730 m 2,0,1
 830 780 830 780 805 820 c 128,-1,2
 780 860 780 860 710 860 c 2,3,-1
 660 860 l 1,4,-1
 660 900 l 1,5,-1
 980 900 l 1,6,-1
 980 290 l 2,7,8
 980 190 980 190 990 155 c 128,-1,9
 1000 120 1000 120 1040 120 c 256,10,11
 1080 120 1080 120 1127 138 c 1,12,-1
 1140 100 l 1,13,-1
 880 -10 l 1,14,-1
 830 -10 l 1,15,-1
 830 146 l 1,16,17
 809 118 809 118 785 93 c 0,18,19
 687 -10 687 -10 569 -10 c 0,20,21
 453 -10 453 -10 369.5 48 c 128,-1,22
 286 106 286 106 253 214.5 c 128,-1,23
 220 323 220 323 220 440 c 2,24,-1
 220 730 l 2,25,26
 220 780 220 780 195 820 c 128,-1,27
 170 860 170 860 100 860 c 2,28,-1
 50 860 l 1,29,-1
 50 900 l 1,30,-1
 370 900 l 1,31,-1
 370 440 l 2,32,33
 370 343 370 343 383.5 252 c 128,-1,34
 397 161 397 161 444.5 113 c 128,-1,35
 492 65 492 65 569 65 c 0,36,37
 648 65 648 65 710.5 118 c 128,-1,38
 773 171 773 171 801.5 267 c 128,-1,39
 830 363 830 363 830 460 c 2,40,-1
 830 730 l 2,0,1
EndSplineSet
Validated: 1
EndChar

StartChar: v
Encoding: 118 7456 86
AltUni2: 000076.ffffffff.0
Width: 1255
Flags: W
AnchorPoint: "Anchor-12" 628 450 basechar 0
AnchorPoint: "Anchor-11" 628 700 basechar 0
AnchorPoint: "Anchor-9" 628 0 basechar 0
AnchorPoint: "Anchor-8" 628 1000 basechar 0
LayerCount: 2
Fore
SplineSet
576 900 m 1,0,-1
 576 860 l 1,1,-1
 526 860 l 2,2,3
 466 860 466 860 450 805 c 0,4,5
 442 779 442 779 442 753 c 0,6,7
 442 732 442 732 448 711 c 2,8,-1
 655 200 l 1,9,-1
 861 709 l 2,10,11
 866 727 866 727 866 746 c 0,12,13
 866 775 866 775 855 805 c 0,14,15
 835 860 835 860 775 860 c 2,16,-1
 725 860 l 1,17,-1
 725 900 l 1,18,-1
 1205 900 l 1,19,-1
 1205 860 l 1,20,-1
 1155 860 l 2,21,22
 1095 860 1095 860 1040 805 c 0,23,24
 989 754 989 754 968 707 c 2,25,-1
 682 0 l 1,26,-1
 574 0 l 1,27,-1
 289 704 l 2,28,29
 268 752 268 752 215 805 c 0,30,31
 160 860 160 860 100 860 c 2,32,-1
 50 860 l 1,33,-1
 50 900 l 1,34,-1
 576 900 l 1,0,-1
EndSplineSet
Validated: 1
EndChar

StartChar: w
Encoding: 119 7457 87
AltUni2: 00051d.ffffffff.0 000077.ffffffff.0
Width: 1835
Flags: W
AnchorPoint: "Anchor-12" 918 450 basechar 0
AnchorPoint: "Anchor-11" 918 700 basechar 0
AnchorPoint: "Anchor-10" 1200 0 basechar 0
AnchorPoint: "Anchor-9" 918 0 basechar 0
AnchorPoint: "Anchor-8" 918 1000 basechar 0
LayerCount: 2
Fore
SplineSet
918 584 m 1,0,-1
 682 0 l 1,1,-1
 574 0 l 1,2,-1
 289 704 l 2,3,4
 268 752 268 752 215 805 c 0,5,6
 160 860 160 860 100 860 c 2,7,-1
 50 860 l 1,8,-1
 50 900 l 1,9,-1
 576 900 l 1,10,-1
 576 860 l 1,11,-1
 526 860 l 2,12,13
 466 860 466 860 450 805 c 0,14,15
 442 779 442 779 442 753 c 0,16,17
 442 732 442 732 448 711 c 2,18,-1
 655 200 l 1,19,-1
 861 709 l 2,20,21
 862 713 862 713 863 717 c 0,22,23
 841 759 841 759 795 805 c 0,24,25
 740 860 740 860 680 860 c 2,26,-1
 630 860 l 1,27,-1
 630 900 l 1,28,-1
 1156 900 l 1,29,-1
 1156 860 l 1,30,-1
 1106 860 l 2,31,32
 1046 860 1046 860 1030 805 c 0,33,34
 1022 779 1022 779 1022 753 c 0,35,36
 1022 732 1022 732 1028 711 c 2,37,-1
 1235 200 l 1,38,-1
 1441 709 l 2,39,40
 1446 727 1446 727 1446 746 c 0,41,42
 1446 775 1446 775 1435 805 c 0,43,44
 1415 860 1415 860 1355 860 c 2,45,-1
 1305 860 l 1,46,-1
 1305 900 l 1,47,-1
 1785 900 l 1,48,-1
 1785 860 l 1,49,-1
 1735 860 l 2,50,51
 1675 860 1675 860 1620 805 c 0,52,53
 1569 754 1569 754 1548 707 c 2,54,-1
 1262 0 l 1,55,-1
 1154 0 l 1,56,-1
 918 584 l 1,0,-1
EndSplineSet
Validated: 1
EndChar

StartChar: x
Encoding: 120 11437 88
AltUni2: 000445.ffffffff.0 000078.ffffffff.0
Width: 1112
Flags: W
AnchorPoint: "Anchor-12" 556 450 basechar 0
AnchorPoint: "Anchor-11" 556 700 basechar 0
AnchorPoint: "Anchor-10" 780 0 basechar 0
AnchorPoint: "Anchor-9" 556 0 basechar 0
AnchorPoint: "Anchor-8" 556 1000 basechar 0
LayerCount: 2
Fore
SplineSet
571 900 m 1,0,-1
 571 860 l 1,1,-1
 521 860 l 2,2,3
 471 860 471 860 466 805 c 0,4,5
 465 796 465 796 465 786 c 0,6,7
 465 745 465 745 483 707 c 2,8,-1
 570 556 l 1,9,-1
 677 709 l 1,10,11
 702 755 702 755 702 805 c 0,12,13
 702 860 702 860 652 860 c 2,14,-1
 602 860 l 1,15,-1
 602 900 l 1,16,-1
 1062 900 l 1,17,-1
 1062 860 l 1,18,-1
 1012 860 l 2,19,20
 962 860 962 860 893 805 c 128,-1,21
 824 750 824 750 792 700 c 1,22,-1
 793 701 l 1,23,-1
 624 461 l 1,24,-1
 776 198 l 1,25,-1
 775 200 l 1,26,27
 805 150 805 150 863 95 c 128,-1,28
 921 40 921 40 971 40 c 2,29,-1
 1021 40 l 1,30,-1
 1021 0 l 1,31,-1
 532 0 l 1,32,-1
 532 40 l 1,33,-1
 582 40 l 2,34,35
 632 40 632 40 637 95 c 0,36,37
 638 104 638 104 638 113 c 0,38,39
 638 155 638 155 619 194 c 2,40,-1
 537 336 l 1,41,-1
 434 189 l 1,42,-1
 442 200 l 1,43,44
 410 150 410 150 410 95 c 256,45,46
 410 40 410 40 460 40 c 2,47,-1
 510 40 l 1,48,-1
 510 0 l 1,49,-1
 50 0 l 1,50,-1
 50 40 l 1,51,-1
 100 40 l 2,52,53
 150 40 150 40 215 95 c 0,54,55
 276 146 276 146 316 193 c 1,56,-1
 482 431 l 1,57,-1
 324 706 l 1,58,59
 289 753 289 753 237 805 c 0,60,61
 182 860 182 860 132 860 c 2,62,-1
 82 860 l 1,63,-1
 82 900 l 1,64,-1
 571 900 l 1,0,-1
EndSplineSet
Validated: 1
EndChar

StartChar: y
Encoding: 121 1091 89
AltUni2: 000079.ffffffff.0
Width: 1255
Flags: W
AnchorPoint: "Anchor-12" 628 450 basechar 0
AnchorPoint: "Anchor-11" 628 700 basechar 0
AnchorPoint: "Anchor-9" 628 -500 basechar 0
AnchorPoint: "Anchor-8" 628 1000 basechar 0
LayerCount: 2
Fore
SplineSet
574 0 m 1,0,-1
 289 704 l 2,1,2
 268 752 268 752 215 805 c 0,3,4
 160 860 160 860 100 860 c 2,5,-1
 50 860 l 1,6,-1
 50 900 l 1,7,-1
 576 900 l 1,8,-1
 576 860 l 1,9,-1
 526 860 l 2,10,11
 466 860 466 860 450 805 c 0,12,13
 442 779 442 779 442 753 c 0,14,15
 442 732 442 732 448 711 c 2,16,-1
 655 200 l 1,17,-1
 861 709 l 2,18,19
 866 727 866 727 866 746 c 0,20,21
 866 775 866 775 855 805 c 0,22,23
 835 860 835 860 775 860 c 2,24,-1
 725 860 l 1,25,-1
 725 900 l 1,26,-1
 1205 900 l 1,27,-1
 1205 860 l 1,28,-1
 1155 860 l 2,29,30
 1095 860 1095 860 1040 805 c 0,31,32
 989 754 989 754 968 707 c 2,33,-1
 586 -237 l 2,34,35
 532 -370 532 -370 434.5 -435 c 128,-1,36
 337 -500 337 -500 256 -500 c 0,37,38
 197 -500 197 -500 159 -466 c 128,-1,39
 121 -432 121 -432 121 -388 c 0,40,41
 121 -346 121 -346 148.5 -320.5 c 128,-1,42
 176 -295 176 -295 224 -295 c 0,43,44
 257 -295 257 -295 314 -317 c 0,45,46
 354 -332 354 -332 364 -332 c 0,47,48
 394 -332 394 -332 429.5 -300 c 128,-1,49
 465 -268 465 -268 501 -179 c 2,50,-1
 574 0 l 1,0,-1
EndSplineSet
Validated: 1
EndChar

StartChar: z
Encoding: 122 7458 90
AltUni2: 00007a.ffffffff.0
Width: 913
Flags: W
AnchorPoint: "Anchor-12" 457 450 basechar 0
AnchorPoint: "Anchor-11" 457 700 basechar 0
AnchorPoint: "Anchor-9" 457 0 basechar 0
AnchorPoint: "Anchor-8" 457 1000 basechar 0
LayerCount: 2
Fore
SplineSet
610 800 m 1,0,-1
 300 800 l 2,1,2
 200 800 200 800 100 590 c 1,3,-1
 60 590 l 1,4,-1
 150 900 l 1,5,-1
 863 900 l 1,6,-1
 303 100 l 1,7,-1
 613 100 l 2,8,9
 713 100 713 100 813 310 c 1,10,-1
 853 310 l 1,11,-1
 763 0 l 1,12,-1
 50 0 l 1,13,-1
 610 800 l 1,0,-1
EndSplineSet
Validated: 1
EndChar

StartChar: braceleft
Encoding: 123 123 91
Width: 850
Flags: W
LayerCount: 2
Fore
SplineSet
50 554 m 5,0,1
 149 580 149 580 225 657 c 4,2,3
 341 773 341 773 341 1010 c 6,4,-1
 341 1090 l 6,5,6
 341 1305 341 1305 501 1452.5 c 132,-1,7
 661 1600 661 1600 850 1600 c 5,8,9
 723 1600 723 1600 607 1438.5 c 132,-1,10
 491 1277 491 1277 491 1090 c 6,11,-1
 491 1010 l 6,12,13
 491 745 491 745 331 643 c 4,14,15
 221 572 221 572 78 550 c 5,16,17
 221 528 221 528 331 458 c 4,18,19
 491 355 491 355 491 90 c 6,20,-1
 491 10 l 6,21,22
 491 -172 491 -172 607 -336 c 132,-1,23
 723 -500 723 -500 850 -500 c 5,24,25
 663 -500 663 -500 502 -353 c 132,-1,26
 341 -206 341 -206 341 10 c 6,27,-1
 341 90 l 6,28,29
 341 327 341 327 225 444 c 4,30,31
 149 520 149 520 50 546 c 5,32,-1
 50 554 l 5,0,1
EndSplineSet
Validated: 1
EndChar

StartChar: bar
Encoding: 124 1472 92
AltUni2: 00007c.ffffffff.0
Width: 275
Flags: W
LayerCount: 2
Fore
SplineSet
175 -300 m 1,0,-1
 100 -300 l 1,1,-1
 100 1400 l 1,2,-1
 175 1400 l 1,3,-1
 175 -300 l 1,0,-1
EndSplineSet
Validated: 1
EndChar

StartChar: braceright
Encoding: 125 125 93
Width: 850
Flags: W
LayerCount: 2
Fore
SplineSet
800 546 m 1,0,1
 701 520 701 520 625 444 c 0,2,3
 509 327 509 327 509 90 c 2,4,-1
 509 10 l 2,5,6
 509 -206 509 -206 348 -353 c 128,-1,7
 187 -500 187 -500 0 -500 c 1,8,9
 127 -500 127 -500 243 -336 c 128,-1,10
 359 -172 359 -172 359 10 c 2,11,-1
 359 90 l 2,12,13
 359 355 359 355 519 458 c 0,14,15
 629 528 629 528 772 550 c 1,16,17
 629 572 629 572 519 643 c 0,18,19
 359 745 359 745 359 1010 c 2,20,-1
 359 1090 l 2,21,22
 359 1277 359 1277 243 1438.5 c 128,-1,23
 127 1600 127 1600 0 1600 c 1,24,25
 189 1600 189 1600 349 1452.5 c 128,-1,26
 509 1305 509 1305 509 1090 c 2,27,-1
 509 1010 l 2,28,29
 509 773 509 773 625 657 c 0,30,31
 701 580 701 580 800 554 c 1,32,-1
 800 546 l 1,0,1
EndSplineSet
Validated: 1
EndChar

StartChar: asciitilde
Encoding: 126 8764 94
AltUni2: 00007e.ffffffff.0
Width: 1200
Flags: W
LayerCount: 2
Fore
SplineSet
163 568 m 1,0,-1
 100 568 l 1,1,2
 100 637 100 637 134 700 c 128,-1,3
 168 763 168 763 231 797.5 c 128,-1,4
 294 832 294 832 363 832 c 256,5,6
 432 832 432 832 608 757 c 128,-1,7
 784 682 784 682 836 682 c 256,8,9
 888 682 888 682 936 701.5 c 128,-1,10
 984 721 984 721 1010 757 c 128,-1,11
 1036 793 1036 793 1036 832 c 1,12,-1
 1100 832 l 1,13,14
 1100 763 1100 763 1065.5 700 c 128,-1,15
 1031 637 1031 637 968 602.5 c 128,-1,16
 905 568 905 568 836 568 c 256,17,18
 767 568 767 568 591 643 c 128,-1,19
 415 718 415 718 363 718 c 256,20,21
 311 718 311 718 263 698.5 c 128,-1,22
 215 679 215 679 189 643 c 128,-1,23
 163 607 163 607 163 568 c 1,0,-1
EndSplineSet
Validated: 1
EndChar

StartChar: circumflexcomb
Encoding: 675 770 95
Width: 0
GlyphClass: 4
Flags: W
AnchorPoint: "Anchor-13" 0 1450 basemark 0
AnchorPoint: "Anchor-13" 0 1000 mark 0
AnchorPoint: "Anchor-8" 0 1000 mark 0
LayerCount: 2
Fore
SplineSet
111 1400 m 1,0,-1
 289 1050 l 1,1,-1
 239 1050 l 1,2,-1
 0 1289 l 1,3,-1
 -239 1050 l 1,4,-1
 -289 1050 l 1,5,-1
 -111 1400 l 1,6,-1
 111 1400 l 1,0,-1
EndSplineSet
Validated: 1
EndChar

StartChar: tildecomb
Encoding: 676 2075 96
AltUni2: 000342.ffffffff.0 000303.ffffffff.0
Width: 0
GlyphClass: 4
Flags: W
AnchorPoint: "Anchor-13" 0 1450 basemark 0
AnchorPoint: "Anchor-13" 0 1000 mark 0
AnchorPoint: "Anchor-8" 0 1000 mark 0
LayerCount: 2
Fore
SplineSet
294 1344 m 1,0,-1
 350 1344 l 1,1,2
 347 1230 347 1230 300.5 1166.5 c 0,3,4
 254 1103 254 1103 175 1103 c 0,5,6
 92 1103 92 1103 -29.5 1168.5 c 0,7,8
 -151 1234 -151 1234 -197 1234 c 0,9,10
 -244 1234 -244 1234 -263 1211.5 c 0,11,12
 -282 1189 -282 1189 -294 1105 c 1,13,-1
 -350 1105 l 1,14,15
 -347 1223 -347 1223 -302 1285 c 0,16,17
 -257 1347 -257 1347 -177 1347 c 0,18,19
 -101 1347 -101 1347 23.5 1279 c 0,20,21
 148 1211 148 1211 195 1211 c 0,22,23
 241 1211 241 1211 264.5 1238 c 0,24,25
 288 1265 288 1265 294 1344 c 1,0,-1
EndSplineSet
Validated: 1
EndChar

StartChar: macroncomb
Encoding: 677 772 97
Width: 0
GlyphClass: 4
Flags: W
AnchorPoint: "Anchor-13" 0 1450 basemark 0
AnchorPoint: "Anchor-13" 0 1000 mark 0
AnchorPoint: "Anchor-8" 0 1000 mark 0
LayerCount: 2
Fore
SplineSet
289 1300 m 1,0,-1
 289 1150 l 1,1,-1
 -289 1150 l 1,2,-1
 -289 1300 l 1,3,-1
 289 1300 l 1,0,-1
EndSplineSet
Validated: 1
EndChar

StartChar: overlinecomb
Encoding: 678 773 98
Width: 0
GlyphClass: 4
Flags: W
AnchorPoint: "Anchor-15" 0 700 basemark 0
AnchorPoint: "Anchor-15" 0 700 mark 0
AnchorPoint: "Anchor-11" 0 700 mark 0
LayerCount: 2
Fore
SplineSet
-750 1637 m 1,0,-1
 -750 1712 l 1,1,-1
 750 1712 l 1,2,-1
 750 1637 l 1,3,-1
 -750 1637 l 1,0,-1
EndSplineSet
Validated: 1
EndChar

StartChar: brevecomb
Encoding: 679 774 99
Width: 0
GlyphClass: 4
Flags: W
AnchorPoint: "Anchor-13" 0 1450 basemark 0
AnchorPoint: "Anchor-13" 0 1000 mark 0
AnchorPoint: "Anchor-8" 0 1000 mark 0
LayerCount: 2
Fore
SplineSet
-175 1282 m 0,0,1
 -149 1246 -149 1246 -101 1226.5 c 0,2,3
 -53 1207 -53 1207 -1 1207 c 256,4,5
 51 1207 51 1207 99 1226.5 c 0,6,7
 147 1246 147 1246 173 1282 c 0,8,9
 199 1318 199 1318 199 1357 c 1,10,-1
 263 1357 l 1,11,12
 263 1288 263 1288 228.5 1225 c 0,13,14
 194 1162 194 1162 131 1127.5 c 0,15,16
 68 1093 68 1093 -1 1093 c 256,17,18
 -70 1093 -70 1093 -133 1127.5 c 0,19,20
 -196 1162 -196 1162 -230 1225 c 0,21,22
 -264 1288 -264 1288 -264 1357 c 1,23,-1
 -201 1357 l 1,24,25
 -201 1318 -201 1318 -175 1282 c 0,0,1
EndSplineSet
Validated: 1
EndChar

StartChar: dotaccentcomb
Encoding: 680 775 100
Width: 0
GlyphClass: 4
Flags: W
AnchorPoint: "Anchor-13" 0 1450 basemark 0
AnchorPoint: "Anchor-13" 0 1000 mark 0
AnchorPoint: "Anchor-8" 0 1000 mark 0
LayerCount: 2
Fore
SplineSet
0 1335 m 256,0,1
 29 1335 29 1335 55.5 1321 c 0,2,3
 82 1307 82 1307 96 1280.5 c 0,4,5
 110 1254 110 1254 110 1225 c 256,6,7
 110 1196 110 1196 96 1169.5 c 0,8,9
 82 1143 82 1143 55.5 1129 c 0,10,11
 29 1115 29 1115 0 1115 c 256,12,13
 -29 1115 -29 1115 -55.5 1129 c 0,14,15
 -82 1143 -82 1143 -96 1169.5 c 0,16,17
 -110 1196 -110 1196 -110 1225 c 256,18,19
 -110 1254 -110 1254 -96 1280.5 c 0,20,21
 -82 1307 -82 1307 -55.5 1321 c 0,22,23
 -29 1335 -29 1335 0 1335 c 256,0,1
EndSplineSet
Validated: 1
EndChar

StartChar: dieresiscomb
Encoding: 681 776 101
Width: 0
GlyphClass: 4
Flags: W
AnchorPoint: "Anchor-13" 0 1450 basemark 0
AnchorPoint: "Anchor-13" 0 1000 mark 0
AnchorPoint: "Anchor-8" 0 1000 mark 0
LayerCount: 2
Fore
SplineSet
-175 1335 m 256,0,1
 -146 1335 -146 1335 -119.5 1321 c 0,2,3
 -93 1307 -93 1307 -79 1280.5 c 0,4,5
 -65 1254 -65 1254 -65 1225 c 256,6,7
 -65 1196 -65 1196 -79 1169.5 c 0,8,9
 -93 1143 -93 1143 -119.5 1129 c 0,10,11
 -146 1115 -146 1115 -175 1115 c 256,12,13
 -204 1115 -204 1115 -230.5 1129 c 0,14,15
 -257 1143 -257 1143 -271 1169.5 c 0,16,17
 -285 1196 -285 1196 -285 1225 c 256,18,19
 -285 1254 -285 1254 -271 1280.5 c 0,20,21
 -257 1307 -257 1307 -230.5 1321 c 0,22,23
 -204 1335 -204 1335 -175 1335 c 256,0,1
175 1335 m 256,24,25
 204 1335 204 1335 230.5 1321 c 0,26,27
 257 1307 257 1307 271 1280.5 c 0,28,29
 285 1254 285 1254 285 1225 c 256,30,31
 285 1196 285 1196 271 1169.5 c 0,32,33
 257 1143 257 1143 230.5 1129 c 0,34,35
 204 1115 204 1115 175 1115 c 256,36,37
 146 1115 146 1115 119.5 1129 c 0,38,39
 93 1143 93 1143 79 1169.5 c 0,40,41
 65 1196 65 1196 65 1225 c 256,42,43
 65 1254 65 1254 79 1280.5 c 0,44,45
 93 1307 93 1307 119.5 1321 c 0,46,47
 146 1335 146 1335 175 1335 c 256,24,25
EndSplineSet
Validated: 1
EndChar

StartChar: arrowright
Encoding: 1689 8594 104
Width: 1900
Flags: W
LayerCount: 2
Fore
SplineSet
100 650 m 1
 100 750 l 1
 1400 750 l 1
 1275 875 1275 875 1150 1100 c 1
 1200 1100 l 1
 1500 800 1500 800 1800 700 c 1
 1500 600 1500 600 1200 300 c 1
 1150 300 l 1
 1275 525 1275 525 1400 650 c 1
 100 650 l 1
EndSplineSet
Validated: 1
EndChar

StartChar: product
Encoding: 1812 8719 105
Width: 1950
Flags: W
LayerCount: 2
Fore
SplineSet
500 1600 m 1,0,-1
 500 -300 l 2,1,2
 500 -350 500 -350 540 -405 c 128,-1,3
 580 -460 580 -460 650 -460 c 2,4,-1
 700 -460 l 1,5,-1
 700 -500 l 1,6,-1
 100 -500 l 1,7,-1
 100 -460 l 1,8,-1
 150 -460 l 2,9,10
 220 -460 220 -460 260 -405 c 128,-1,11
 300 -350 300 -350 300 -300 c 2,12,-1
 300 1500 l 2,13,14
 300 1550 300 1550 260 1605 c 128,-1,15
 220 1660 220 1660 150 1660 c 2,16,-1
 100 1660 l 1,17,-1
 100 1700 l 1,18,-1
 1850 1700 l 1,19,-1
 1850 1660 l 1,20,-1
 1800 1660 l 2,21,22
 1730 1660 1730 1660 1690 1605 c 128,-1,23
 1650 1550 1650 1550 1650 1500 c 2,24,-1
 1650 -300 l 2,25,26
 1650 -350 1650 -350 1690 -405 c 128,-1,27
 1730 -460 1730 -460 1800 -460 c 2,28,-1
 1850 -460 l 1,29,-1
 1850 -500 l 1,30,-1
 1250 -500 l 1,31,-1
 1250 -460 l 1,32,-1
 1300 -460 l 2,33,34
 1370 -460 1370 -460 1410 -405 c 128,-1,35
 1450 -350 1450 -350 1450 -300 c 2,36,-1
 1450 1600 l 1,37,-1
 500 1600 l 1,0,-1
EndSplineSet
Validated: 1
EndChar

StartChar: uni2210
Encoding: 1813 8720 106
Width: 1950
Flags: W
LayerCount: 2
Fore
SplineSet
1450 -400 m 1,0,-1
 1450 1500 l 2,1,2
 1450 1550 1450 1550 1410 1605 c 128,-1,3
 1370 1660 1370 1660 1300 1660 c 2,4,-1
 1250 1660 l 1,5,-1
 1250 1700 l 1,6,-1
 1850 1700 l 1,7,-1
 1850 1660 l 1,8,-1
 1800 1660 l 2,9,10
 1730 1660 1730 1660 1690 1605 c 128,-1,11
 1650 1550 1650 1550 1650 1500 c 2,12,-1
 1650 -300 l 2,13,14
 1650 -350 1650 -350 1690 -405 c 128,-1,15
 1730 -460 1730 -460 1800 -460 c 2,16,-1
 1850 -460 l 1,17,-1
 1850 -500 l 1,18,-1
 100 -500 l 1,19,-1
 100 -460 l 1,20,-1
 150 -460 l 2,21,22
 220 -460 220 -460 260 -405 c 128,-1,23
 300 -350 300 -350 300 -300 c 2,24,-1
 300 1500 l 2,25,26
 300 1550 300 1550 260 1605 c 128,-1,27
 220 1660 220 1660 150 1660 c 2,28,-1
 100 1660 l 1,29,-1
 100 1700 l 1,30,-1
 700 1700 l 1,31,-1
 700 1660 l 1,32,-1
 650 1660 l 2,33,34
 580 1660 580 1660 540 1605 c 128,-1,35
 500 1550 500 1550 500 1500 c 2,36,-1
 500 -400 l 1,37,-1
 1450 -400 l 1,0,-1
EndSplineSet
Validated: 1
EndChar

StartChar: summation
Encoding: 1814 8721 107
Width: 1800
Flags: W
LayerCount: 2
Fore
SplineSet
1600 1700 m 1,0,-1
 1700 1350 l 1,1,-1
 1660 1350 l 1,2,3
 1550 1600 1550 1600 1450 1600 c 2,4,-1
 389 1600 l 1,5,-1
 966 600 l 1,6,-1
 388 -400 l 1,7,-1
 1450 -400 l 2,8,9
 1550 -400 1550 -400 1660 -150 c 1,10,-1
 1700 -150 l 1,11,-1
 1600 -500 l 1,12,-1
 250 -500 l 1,13,-1
 250 -499 l 1,14,-1
 100 -499 l 1,15,-1
 735 600 l 1,16,-1
 100 1700 l 1,17,-1
 1600 1700 l 1,0,-1
EndSplineSet
Validated: 1
EndChar

StartChar: radical
Encoding: 1823 8730 108
Width: 1200
Flags: W
LayerCount: 2
Fore
SplineSet
447 625 m 1,0,-1
 100 625 l 1,1,-1
 100 700 l 1,2,-1
 500 700 l 1,3,-1
 709 127 l 1,4,-1
 1114 1640 l 1,5,-1
 2200 1640 l 1,6,-1
 2200 1565 l 1,7,-1
 1172 1565 l 1,8,-1
 753 5 l 1,9,-1
 755 0 l 1,10,-1
 675 0 l 1,11,-1
 447 625 l 1,0,-1
EndSplineSet
Validated: 1
EndChar

StartChar: uni2223
Encoding: 1832 8739 109
Width: 275
Flags: W
LayerCount: 2
Fore
SplineSet
175 0 m 1,0,-1
 100 0 l 1,1,-1
 100 1400 l 1,2,-1
 175 1400 l 1,3,-1
 175 0 l 1,0,-1
EndSplineSet
Validated: 1
EndChar

StartChar: integral
Encoding: 1840 8747 111
Width: 850
Flags: W
LayerCount: 2
Fore
SplineSet
463 1640 m 256,0,1
 389 1640 389 1640 341 1578 c 1,2,3
 290 1502 290 1502 290 1385 c 0,4,5
 290 1203 290 1203 370 962 c 2,6,-1
 571 369 l 1,7,8
 660 121 660 121 660 -58 c 0,9,10
 660 -282 660 -282 561 -397 c 0,11,12
 470 -500 470 -500 358 -500 c 0,13,14
 248 -500 248 -500 174 -445 c 0,15,16
 105 -397 105 -397 100 -325 c 0,17,18
 100 -294 100 -294 124 -263 c 0,19,20
 150 -230 150 -230 186 -230 c 0,21,22
 274 -230 274 -230 291 -335 c 0,23,24
 306 -440 306 -440 396 -440 c 0,25,26
 458 -440 458 -440 509 -368 c 1,27,28
 560 -304 560 -304 560 -184 c 0,29,30
 560 -3 560 -3 478 245 c 2,31,-1
 277 835 l 2,32,33
 190 1079 190 1079 190 1260 c 0,34,35
 190 1478 190 1478 286 1593 c 0,36,37
 372 1700 372 1700 501 1700 c 0,38,39
 604 1700 604 1700 674 1643 c 0,40,41
 750 1583 750 1583 750 1518 c 0,42,43
 750 1478 750 1478 726 1452 c 0,44,45
 702 1423 702 1423 664 1423 c 0,46,47
 564 1423 564 1423 544 1552 c 1,48,49
 537 1640 537 1640 463 1640 c 256,0,1
EndSplineSet
Validated: 1
EndChar

StartChar: uni222E
Encoding: 1843 8750 114
Width: 850
Flags: W
LayerCount: 2
Fore
SplineSet
277 834 m 1,0,1
 218 799 218 799 186 738 c 0,2,3
 150 672 150 672 150 600 c 256,4,5
 150 528 150 528 185.5 462 c 128,-1,6
 221 396 221 396 287.5 360.5 c 128,-1,7
 354 325 354 325 425 325 c 0,8,9
 438 325 438 325 450 326 c 1,10,-1
 277 834 l 1,0,1
400 874 m 1,11,-1
 571 369 l 2,12,13
 572 367 572 367 572 366 c 1,14,15
 632 401 632 401 665 462 c 0,16,17
 700 528 700 528 700 600 c 256,18,19
 700 672 700 672 664.5 738 c 128,-1,20
 629 804 629 804 563 839.5 c 128,-1,21
 497 875 497 875 425 875 c 0,22,23
 412 875 412 875 400 874 c 1,11,-1
253 907 m 0,24,25
 190 1106 190 1106 190 1260 c 0,26,27
 190 1478 190 1478 286 1593 c 0,28,29
 372 1700 372 1700 501 1700 c 0,30,31
 604 1700 604 1700 674 1643 c 0,32,33
 750 1583 750 1583 750 1518 c 0,34,35
 750 1478 750 1478 726 1452 c 0,36,37
 702 1423 702 1423 664 1423 c 0,38,39
 564 1423 564 1423 544 1552 c 1,40,41
 537 1640 537 1640 463 1640 c 256,42,43
 389 1640 389 1640 341 1578 c 1,44,45
 290 1502 290 1502 290 1385 c 0,46,47
 290 1203 290 1203 370 962 c 2,48,-1
 375 947 l 1,49,50
 400 950 400 950 425 950 c 0,51,52
 516 950 516 950 600.5 905 c 128,-1,53
 685 860 685 860 730 775.5 c 128,-1,54
 775 691 775 691 775 600 c 256,55,56
 775 509 775 509 730 425 c 128,-1,57
 685 341 685 341 601 296 c 0,58,59
 599 294 599 294 597 293 c 0,60,61
 660 93 660 93 660 -58 c 0,62,63
 660 -282 660 -282 561 -397 c 0,64,65
 470 -500 470 -500 358 -500 c 0,66,67
 248 -500 248 -500 174 -445 c 0,68,69
 105 -397 105 -397 100 -325 c 0,70,71
 100 -294 100 -294 124 -263 c 0,72,73
 150 -230 150 -230 186 -230 c 0,74,75
 274 -230 274 -230 291 -335 c 0,76,77
 306 -440 306 -440 396 -440 c 0,78,79
 458 -440 458 -440 509 -368 c 1,80,81
 560 -304 560 -304 560 -184 c 0,82,83
 560 -3 560 -3 478 245 c 2,84,-1
 475 254 l 1,85,86
 450 250 450 250 425 250 c 0,87,88
 334 250 334 250 250 295.5 c 128,-1,89
 166 341 166 341 120.5 425 c 128,-1,90
 75 509 75 509 75 600 c 256,91,92
 75 691 75 691 120.5 775.5 c 128,-1,93
 166 860 166 860 250 905 c 0,94,95
 251 906 251 906 253 907 c 0,24,25
EndSplineSet
Validated: 1
EndChar

StartChar: uni222F
Encoding: 1844 8751 115
Width: 1400
Flags: W
LayerCount: 2
Fore
SplineSet
253 907 m 0,0,1
 190 1106 190 1106 190 1260 c 0,2,3
 190 1478 190 1478 286 1593 c 0,4,5
 372 1700 372 1700 501 1700 c 0,6,7
 604 1700 604 1700 674 1643 c 0,8,9
 750 1583 750 1583 750 1518 c 0,10,11
 750 1478 750 1478 726 1452 c 0,12,13
 702 1423 702 1423 664 1423 c 0,14,15
 564 1423 564 1423 544 1552 c 1,16,17
 537 1640 537 1640 463 1640 c 256,18,19
 389 1640 389 1640 341 1578 c 1,20,21
 290 1502 290 1502 290 1385 c 0,22,23
 290 1203 290 1203 370 962 c 2,24,-1
 375 947 l 1,25,26
 400 950 400 950 425 950 c 2,27,-1
 790 950 l 1,28,29
 740 1123 740 1123 740 1260 c 0,30,31
 740 1478 740 1478 836 1593 c 0,32,33
 922 1700 922 1700 1051 1700 c 0,34,35
 1154 1700 1154 1700 1224 1643 c 0,36,37
 1300 1583 1300 1583 1300 1518 c 0,38,39
 1300 1478 1300 1478 1276 1452 c 0,40,41
 1252 1423 1252 1423 1214 1423 c 0,42,43
 1114 1423 1114 1423 1094 1552 c 1,44,45
 1087 1640 1087 1640 1013 1640 c 256,46,47
 939 1640 939 1640 891 1578 c 1,48,49
 840 1502 840 1502 840 1385 c 0,50,51
 840 1203 840 1203 920 962 c 2,52,-1
 924 950 l 1,53,-1
 975 950 l 2,54,55
 1066 950 1066 950 1150.5 905 c 128,-1,56
 1235 860 1235 860 1280 775.5 c 128,-1,57
 1325 691 1325 691 1325 600 c 256,58,59
 1325 509 1325 509 1280 425 c 128,-1,60
 1235 341 1235 341 1151 296 c 0,61,62
 1149 294 1149 294 1147 293 c 0,63,64
 1210 93 1210 93 1210 -58 c 0,65,66
 1210 -282 1210 -282 1111 -397 c 0,67,68
 1020 -500 1020 -500 908 -500 c 0,69,70
 798 -500 798 -500 724 -445 c 0,71,72
 655 -397 655 -397 650 -325 c 0,73,74
 650 -294 650 -294 674 -263 c 0,75,76
 700 -230 700 -230 736 -230 c 0,77,78
 824 -230 824 -230 841 -335 c 0,79,80
 856 -440 856 -440 946 -440 c 0,81,82
 1008 -440 1008 -440 1059 -368 c 1,83,84
 1110 -304 1110 -304 1110 -184 c 0,85,86
 1110 -3 1110 -3 1028 245 c 2,87,-1
 1025 254 l 1,88,89
 1000 250 1000 250 975 250 c 2,90,-1
 610 250 l 1,91,92
 660 77 660 77 660 -58 c 0,93,94
 660 -282 660 -282 561 -397 c 0,95,96
 470 -500 470 -500 358 -500 c 0,97,98
 248 -500 248 -500 174 -445 c 0,99,100
 105 -397 105 -397 100 -325 c 0,101,102
 100 -294 100 -294 124 -263 c 0,103,104
 150 -230 150 -230 186 -230 c 0,105,106
 274 -230 274 -230 291 -335 c 0,107,108
 306 -440 306 -440 396 -440 c 0,109,110
 458 -440 458 -440 509 -368 c 1,111,112
 560 -304 560 -304 560 -184 c 0,113,114
 560 -3 560 -3 478 245 c 1,115,-1
 476 250 l 1,116,-1
 425 250 l 2,117,118
 334 250 334 250 250 295.5 c 128,-1,119
 166 341 166 341 120.5 425 c 128,-1,120
 75 509 75 509 75 600 c 256,121,122
 75 691 75 691 120.5 775.5 c 128,-1,123
 166 860 166 860 250 905 c 0,124,125
 251 906 251 906 253 907 c 0,0,1
949 875 m 1,126,-1
 1121 369 l 2,127,128
 1122 367 1122 367 1122 366 c 1,129,130
 1182 401 1182 401 1215 462 c 0,131,132
 1250 528 1250 528 1250 600 c 256,133,134
 1250 672 1250 672 1214.5 738 c 128,-1,135
 1179 804 1179 804 1113 839.5 c 128,-1,136
 1047 875 1047 875 975 875 c 2,137,-1
 949 875 l 1,126,-1
451 325 m 1,138,-1
 277 834 l 1,139,140
 218 799 218 799 186 738 c 0,141,142
 150 672 150 672 150 600 c 256,143,144
 150 528 150 528 185.5 462 c 128,-1,145
 221 396 221 396 287.5 360.5 c 128,-1,146
 354 325 354 325 425 325 c 2,147,-1
 451 325 l 1,138,-1
400 874 m 1,148,-1
 571 369 l 2,149,150
 579 347 579 347 586 325 c 1,151,-1
 975 325 l 2,152,153
 988 325 988 325 1000 326 c 1,154,-1
 827 835 l 2,155,156
 820 855 820 855 813 875 c 1,157,-1
 425 875 l 2,158,159
 412 875 412 875 400 874 c 1,148,-1
EndSplineSet
Validated: 1
EndChar

StartChar: uni2230
Encoding: 1845 8752 116
Width: 1950
Flags: W
LayerCount: 2
Fore
SplineSet
253 907 m 0,0,1
 190 1106 190 1106 190 1260 c 0,2,3
 190 1478 190 1478 286 1593 c 0,4,5
 372 1700 372 1700 501 1700 c 0,6,7
 604 1700 604 1700 674 1643 c 0,8,9
 750 1583 750 1583 750 1518 c 0,10,11
 750 1478 750 1478 726 1452 c 0,12,13
 702 1423 702 1423 664 1423 c 0,14,15
 564 1423 564 1423 544 1552 c 1,16,17
 537 1640 537 1640 463 1640 c 256,18,19
 389 1640 389 1640 341 1578 c 1,20,21
 290 1502 290 1502 290 1385 c 0,22,23
 290 1203 290 1203 370 962 c 2,24,-1
 375 947 l 1,25,26
 400 950 400 950 425 950 c 2,27,-1
 790 950 l 1,28,29
 740 1123 740 1123 740 1260 c 0,30,31
 740 1478 740 1478 836 1593 c 0,32,33
 922 1700 922 1700 1051 1700 c 0,34,35
 1154 1700 1154 1700 1224 1643 c 0,36,37
 1300 1583 1300 1583 1300 1518 c 0,38,39
 1300 1478 1300 1478 1276 1452 c 0,40,41
 1252 1423 1252 1423 1214 1423 c 0,42,43
 1114 1423 1114 1423 1094 1552 c 1,44,45
 1087 1640 1087 1640 1013 1640 c 256,46,47
 939 1640 939 1640 891 1578 c 1,48,49
 840 1502 840 1502 840 1385 c 0,50,51
 840 1203 840 1203 920 962 c 2,52,-1
 924 950 l 1,53,-1
 1340 950 l 1,54,55
 1290 1123 1290 1123 1290 1260 c 0,56,57
 1290 1478 1290 1478 1386 1593 c 0,58,59
 1472 1700 1472 1700 1601 1700 c 0,60,61
 1704 1700 1704 1700 1774 1643 c 0,62,63
 1850 1583 1850 1583 1850 1518 c 0,64,65
 1850 1478 1850 1478 1826 1452 c 0,66,67
 1802 1423 1802 1423 1764 1423 c 0,68,69
 1664 1423 1664 1423 1644 1552 c 1,70,71
 1637 1640 1637 1640 1563 1640 c 256,72,73
 1489 1640 1489 1640 1441 1578 c 1,74,75
 1390 1502 1390 1502 1390 1385 c 0,76,77
 1390 1203 1390 1203 1470 962 c 2,78,-1
 1474 950 l 1,79,-1
 1525 950 l 2,80,81
 1616 950 1616 950 1700.5 905 c 128,-1,82
 1785 860 1785 860 1830 775.5 c 128,-1,83
 1875 691 1875 691 1875 600 c 256,84,85
 1875 509 1875 509 1830 425 c 128,-1,86
 1785 341 1785 341 1701 296 c 0,87,88
 1699 294 1699 294 1697 293 c 0,89,90
 1760 93 1760 93 1760 -58 c 0,91,92
 1760 -282 1760 -282 1661 -397 c 0,93,94
 1570 -500 1570 -500 1458 -500 c 0,95,96
 1348 -500 1348 -500 1274 -445 c 0,97,98
 1205 -397 1205 -397 1200 -325 c 0,99,100
 1200 -294 1200 -294 1224 -263 c 0,101,102
 1250 -230 1250 -230 1286 -230 c 0,103,104
 1374 -230 1374 -230 1391 -335 c 0,105,106
 1406 -440 1406 -440 1496 -440 c 0,107,108
 1558 -440 1558 -440 1609 -368 c 1,109,110
 1660 -304 1660 -304 1660 -184 c 0,111,112
 1660 -3 1660 -3 1578 245 c 2,113,-1
 1575 254 l 1,114,115
 1550 250 1550 250 1525 250 c 2,116,-1
 1160 250 l 1,117,118
 1210 77 1210 77 1210 -58 c 0,119,120
 1210 -282 1210 -282 1111 -397 c 0,121,122
 1020 -500 1020 -500 908 -500 c 0,123,124
 798 -500 798 -500 724 -445 c 0,125,126
 655 -397 655 -397 650 -325 c 0,127,128
 650 -294 650 -294 674 -263 c 0,129,130
 700 -230 700 -230 736 -230 c 0,131,132
 824 -230 824 -230 841 -335 c 0,133,134
 856 -440 856 -440 946 -440 c 0,135,136
 1008 -440 1008 -440 1059 -368 c 1,137,138
 1110 -304 1110 -304 1110 -184 c 0,139,140
 1110 -3 1110 -3 1028 245 c 1,141,-1
 1026 250 l 1,142,-1
 610 250 l 1,143,144
 660 77 660 77 660 -58 c 0,145,146
 660 -282 660 -282 561 -397 c 0,147,148
 470 -500 470 -500 358 -500 c 0,149,150
 248 -500 248 -500 174 -445 c 0,151,152
 105 -397 105 -397 100 -325 c 0,153,154
 100 -294 100 -294 124 -263 c 0,155,156
 150 -230 150 -230 186 -230 c 0,157,158
 274 -230 274 -230 291 -335 c 0,159,160
 306 -440 306 -440 396 -440 c 0,161,162
 458 -440 458 -440 509 -368 c 1,163,164
 560 -304 560 -304 560 -184 c 0,165,166
 560 -3 560 -3 478 245 c 1,167,-1
 476 250 l 1,168,-1
 425 250 l 2,169,170
 334 250 334 250 250 295.5 c 128,-1,171
 166 341 166 341 120.5 425 c 128,-1,172
 75 509 75 509 75 600 c 256,173,174
 75 691 75 691 120.5 775.5 c 128,-1,175
 166 860 166 860 250 905 c 0,176,177
 251 906 251 906 253 907 c 0,0,1
1499 875 m 1,178,-1
 1671 369 l 2,179,180
 1672 367 1672 367 1672 366 c 1,181,182
 1732 401 1732 401 1765 462 c 0,183,184
 1800 528 1800 528 1800 600 c 256,185,186
 1800 672 1800 672 1764.5 738 c 128,-1,187
 1729 804 1729 804 1663 839.5 c 128,-1,188
 1597 875 1597 875 1525 875 c 2,189,-1
 1499 875 l 1,178,-1
949 875 m 1,190,-1
 1121 369 l 2,191,192
 1129 347 1129 347 1136 325 c 1,193,-1
 1525 325 l 2,194,195
 1538 325 1538 325 1550 326 c 1,196,-1
 1377 835 l 2,197,198
 1370 855 1370 855 1363 875 c 1,199,-1
 949 875 l 1,190,-1
451 325 m 1,200,-1
 277 834 l 1,201,202
 218 799 218 799 186 738 c 0,203,204
 150 672 150 672 150 600 c 256,205,206
 150 528 150 528 185.5 462 c 128,-1,207
 221 396 221 396 287.5 360.5 c 128,-1,208
 354 325 354 325 425 325 c 2,209,-1
 451 325 l 1,200,-1
400 874 m 1,210,-1
 571 369 l 2,211,212
 579 347 579 347 586 325 c 1,213,-1
 1001 325 l 1,214,-1
 827 835 l 2,215,216
 820 855 820 855 813 875 c 1,217,-1
 425 875 l 2,218,219
 412 875 412 875 400 874 c 1,210,-1
EndSplineSet
Validated: 1
EndChar

StartChar: uni2231
Encoding: 1846 8753 117
Width: 973
Flags: W
LayerCount: 2
Fore
SplineSet
253 907 m 0,0,1
 190 1106 190 1106 190 1260 c 0,2,3
 190 1478 190 1478 286 1593 c 0,4,5
 372 1700 372 1700 501 1700 c 0,6,7
 604 1700 604 1700 674 1643 c 0,8,9
 750 1583 750 1583 750 1518 c 0,10,11
 750 1478 750 1478 726 1452 c 0,12,13
 702 1423 702 1423 664 1423 c 0,14,15
 564 1423 564 1423 544 1552 c 1,16,17
 537 1640 537 1640 463 1640 c 256,18,19
 389 1640 389 1640 341 1578 c 1,20,21
 290 1502 290 1502 290 1385 c 0,22,23
 290 1203 290 1203 370 962 c 2,24,-1
 375 947 l 1,25,26
 400 950 400 950 425 950 c 0,27,28
 516 950 516 950 600.5 905 c 128,-1,29
 685 860 685 860 730 776 c 0,30,31
 771 698 771 698 775 616 c 1,32,33
 822 658 822 658 898 700 c 1,34,-1
 898 680 l 1,35,36
 778 560 778 560 738 440 c 1,37,38
 698 560 698 560 578 680 c 1,39,-1
 578 700 l 1,40,41
 652 659 652 659 699 617 c 1,42,43
 696 680 696 680 665 738 c 0,44,45
 629 804 629 804 563 839.5 c 128,-1,46
 497 875 497 875 425 875 c 0,47,48
 412 875 412 875 400 874 c 1,49,-1
 571 369 l 1,50,51
 660 121 660 121 660 -58 c 0,52,53
 660 -282 660 -282 561 -397 c 0,54,55
 470 -500 470 -500 358 -500 c 0,56,57
 248 -500 248 -500 174 -445 c 0,58,59
 105 -397 105 -397 100 -325 c 0,60,61
 100 -294 100 -294 124 -263 c 0,62,63
 150 -230 150 -230 186 -230 c 0,64,65
 274 -230 274 -230 291 -335 c 0,66,67
 306 -440 306 -440 396 -440 c 0,68,69
 458 -440 458 -440 509 -368 c 1,70,71
 560 -304 560 -304 560 -184 c 0,72,73
 560 -3 560 -3 478 245 c 2,74,-1
 277 834 l 1,75,76
 218 799 218 799 186 738 c 0,77,78
 150 672 150 672 150 600 c 1,79,-1
 75 600 l 1,80,81
 75 691 75 691 120.5 775.5 c 128,-1,82
 166 860 166 860 250 905 c 0,83,84
 251 906 251 906 253 907 c 0,0,1
EndSplineSet
Validated: 1
EndChar

StartChar: uni2232
Encoding: 1847 8754 118
Width: 973
Flags: W
LayerCount: 2
Fore
SplineSet
277 834 m 1,0,1
 218 799 218 799 186 738 c 0,2,3
 150 672 150 672 150 600 c 256,4,5
 150 528 150 528 185.5 462 c 128,-1,6
 221 396 221 396 287.5 360.5 c 128,-1,7
 354 325 354 325 425 325 c 0,8,9
 438 325 438 325 450 326 c 1,10,-1
 277 834 l 1,0,1
757 487 m 0,11,12
 746 456 746 456 730 425 c 0,13,14
 685 341 685 341 601 296 c 0,15,16
 599 294 599 294 597 293 c 0,17,18
 660 93 660 93 660 -58 c 0,19,20
 660 -282 660 -282 561 -397 c 0,21,22
 470 -500 470 -500 358 -500 c 0,23,24
 248 -500 248 -500 174 -445 c 0,25,26
 105 -397 105 -397 100 -325 c 0,27,28
 100 -294 100 -294 124 -263 c 0,29,30
 150 -230 150 -230 186 -230 c 0,31,32
 274 -230 274 -230 291 -335 c 0,33,34
 306 -440 306 -440 396 -440 c 0,35,36
 458 -440 458 -440 509 -368 c 1,37,38
 560 -304 560 -304 560 -184 c 0,39,40
 560 -3 560 -3 478 245 c 2,41,-1
 475 254 l 1,42,43
 450 250 450 250 425 250 c 0,44,45
 334 250 334 250 250 295.5 c 128,-1,46
 166 341 166 341 120.5 425 c 128,-1,47
 75 509 75 509 75 600 c 256,48,49
 75 691 75 691 120.5 775.5 c 128,-1,50
 166 860 166 860 250 905 c 0,51,52
 251 906 251 906 253 907 c 0,53,54
 190 1106 190 1106 190 1260 c 0,55,56
 190 1478 190 1478 286 1593 c 0,57,58
 372 1700 372 1700 501 1700 c 0,59,60
 604 1700 604 1700 674 1643 c 0,61,62
 750 1583 750 1583 750 1518 c 0,63,64
 750 1478 750 1478 726 1452 c 0,65,66
 702 1423 702 1423 664 1423 c 0,67,68
 564 1423 564 1423 544 1552 c 1,69,70
 537 1640 537 1640 463 1640 c 256,71,72
 389 1640 389 1640 341 1578 c 1,73,74
 290 1502 290 1502 290 1385 c 0,75,76
 290 1203 290 1203 370 962 c 2,77,-1
 375 947 l 1,78,79
 400 950 400 950 425 950 c 0,80,81
 516 950 516 950 600.5 905 c 128,-1,82
 685 860 685 860 730 776 c 0,83,84
 771 698 771 698 775 616 c 1,85,86
 822 658 822 658 898 700 c 1,87,-1
 898 680 l 1,88,89
 802 584 802 584 757 487 c 0,11,12
693 536 m 1,90,91
 650 608 650 608 578 680 c 1,92,-1
 578 700 l 1,93,94
 652 659 652 659 699 617 c 1,95,96
 696 680 696 680 665 738 c 0,97,98
 629 804 629 804 563 839.5 c 128,-1,99
 497 875 497 875 425 875 c 0,100,101
 412 875 412 875 400 874 c 1,102,-1
 571 369 l 2,103,104
 572 367 572 367 572 366 c 1,105,106
 632 401 632 401 665 462 c 0,107,108
 684 498 684 498 693 536 c 1,90,91
EndSplineSet
Validated: 1
EndChar

StartChar: uni2233
Encoding: 1848 8755 119
Width: 973
Flags: W
LayerCount: 2
Fore
SplineSet
277 834 m 1,0,1
 218 799 218 799 186 738 c 0,2,3
 150 672 150 672 150 600 c 256,4,5
 150 528 150 528 185.5 462 c 128,-1,6
 221 396 221 396 287.5 360.5 c 128,-1,7
 354 325 354 325 425 325 c 0,8,9
 438 325 438 325 450 326 c 1,10,-1
 277 834 l 1,0,1
775 584 m 1,11,12
 771 502 771 502 730 425 c 0,13,14
 685 341 685 341 601 296 c 0,15,16
 599 294 599 294 597 293 c 0,17,18
 660 93 660 93 660 -58 c 0,19,20
 660 -282 660 -282 561 -397 c 0,21,22
 470 -500 470 -500 358 -500 c 0,23,24
 248 -500 248 -500 174 -445 c 0,25,26
 105 -397 105 -397 100 -325 c 0,27,28
 100 -294 100 -294 124 -263 c 0,29,30
 150 -230 150 -230 186 -230 c 0,31,32
 274 -230 274 -230 291 -335 c 0,33,34
 306 -440 306 -440 396 -440 c 0,35,36
 458 -440 458 -440 509 -368 c 1,37,38
 560 -304 560 -304 560 -184 c 0,39,40
 560 -3 560 -3 478 245 c 2,41,-1
 475 254 l 1,42,43
 450 250 450 250 425 250 c 0,44,45
 334 250 334 250 250 295.5 c 128,-1,46
 166 341 166 341 120.5 425 c 128,-1,47
 75 509 75 509 75 600 c 256,48,49
 75 691 75 691 120.5 775.5 c 128,-1,50
 166 860 166 860 250 905 c 0,51,52
 251 906 251 906 253 907 c 0,53,54
 190 1106 190 1106 190 1260 c 0,55,56
 190 1478 190 1478 286 1593 c 0,57,58
 372 1700 372 1700 501 1700 c 0,59,60
 604 1700 604 1700 674 1643 c 0,61,62
 750 1583 750 1583 750 1518 c 0,63,64
 750 1478 750 1478 726 1452 c 0,65,66
 702 1423 702 1423 664 1423 c 0,67,68
 564 1423 564 1423 544 1552 c 1,69,70
 537 1640 537 1640 463 1640 c 256,71,72
 389 1640 389 1640 341 1578 c 1,73,74
 290 1502 290 1502 290 1385 c 0,75,76
 290 1203 290 1203 370 962 c 2,77,-1
 375 947 l 1,78,79
 400 950 400 950 425 950 c 0,80,81
 516 950 516 950 600.5 905 c 128,-1,82
 685 860 685 860 730 776 c 0,83,84
 747 744 747 744 757 712 c 1,85,86
 802 616 802 616 898 520 c 1,87,-1
 898 500 l 1,88,89
 822 542 822 542 775 584 c 1,11,12
699 583 m 1,90,91
 652 541 652 541 578 500 c 1,92,-1
 578 520 l 1,93,94
 650 592 650 592 693 664 c 1,95,96
 684 702 684 702 665 738 c 0,97,98
 629 804 629 804 563 839.5 c 128,-1,99
 497 875 497 875 425 875 c 0,100,101
 412 875 412 875 400 874 c 1,102,-1
 571 369 l 2,103,104
 572 367 572 367 572 366 c 1,105,106
 632 401 632 401 665 462 c 0,107,108
 696 520 696 520 699 583 c 1,90,91
EndSplineSet
Validated: 1
EndChar

StartChar: uni22C0
Encoding: 1988 8896 120
Width: 1800
Flags: W
LayerCount: 2
Fore
SplineSet
900 1554 m 1,0,-1
 152 -500 l 1,1,-1
 46 -500 l 1,2,-1
 847 1700 l 1,3,-1
 953 1700 l 1,4,-1
 1754 -500 l 1,5,-1
 1648 -500 l 1,6,-1
 900 1554 l 1,0,-1
EndSplineSet
Validated: 1
EndChar

StartChar: uni22C1
Encoding: 1989 8897 121
Width: 1800
Flags: W
LayerCount: 2
Fore
SplineSet
1648 1700 m 1,0,-1
 1754 1700 l 1,1,-1
 953 -500 l 1,2,-1
 847 -500 l 1,3,-1
 46 1700 l 1,4,-1
 152 1700 l 1,5,-1
 900 -354 l 1,6,-1
 1648 1700 l 1,0,-1
EndSplineSet
Validated: 1
EndChar

StartChar: uni22C2
Encoding: 1990 8898 122
Width: 1900
Flags: W
LayerCount: 2
Fore
SplineSet
200 846 m 2,0,-1
 200 -500 l 1,1,-1
 100 -500 l 1,2,-1
 100 846 l 2,3,4
 100 1068 100 1068 210.5 1273.5 c 128,-1,5
 321 1479 321 1479 524.5 1589.5 c 128,-1,6
 728 1700 728 1700 950 1700 c 256,7,8
 1172 1700 1172 1700 1375.5 1589.5 c 128,-1,9
 1579 1479 1579 1479 1689.5 1273.5 c 128,-1,10
 1800 1068 1800 1068 1800 846 c 2,11,-1
 1800 -500 l 1,12,-1
 1700 -500 l 1,13,-1
 1700 846 l 2,14,15
 1700 1043 1700 1043 1603 1224.5 c 128,-1,16
 1506 1406 1506 1406 1326.5 1503 c 128,-1,17
 1147 1600 1147 1600 950 1600 c 0,18,19
 755 1600 755 1600 574.5 1503 c 128,-1,20
 394 1406 394 1406 297 1224.5 c 128,-1,21
 200 1043 200 1043 200 846 c 2,0,-1
EndSplineSet
Validated: 1
EndChar

StartChar: uni22C3
Encoding: 1991 8899 123
Width: 1900
Flags: W
LayerCount: 2
Fore
SplineSet
297 -24.5 m 128,-1,1
 394 -206 394 -206 574.5 -303 c 128,-1,2
 755 -400 755 -400 950 -400 c 0,3,4
 1147 -400 1147 -400 1326.5 -303 c 128,-1,5
 1506 -206 1506 -206 1603 -24.5 c 128,-1,6
 1700 157 1700 157 1700 354 c 2,7,-1
 1700 1700 l 1,8,-1
 1800 1700 l 1,9,-1
 1800 354 l 2,10,11
 1800 132 1800 132 1689.5 -73.5 c 128,-1,12
 1579 -279 1579 -279 1375.5 -389.5 c 128,-1,13
 1172 -500 1172 -500 950 -500 c 256,14,15
 728 -500 728 -500 524.5 -389.5 c 128,-1,16
 321 -279 321 -279 210.5 -73.5 c 128,-1,17
 100 132 100 132 100 354 c 2,18,-1
 100 1700 l 1,19,-1
 200 1700 l 1,20,-1
 200 354 l 2,21,0
 200 157 200 157 297 -24.5 c 128,-1,1
EndSplineSet
Validated: 1
EndChar

StartChar: uni22EF
Encoding: 2034 8943 124
Width: 2020
Flags: W
LayerCount: 2
Fore
SplineSet
1810 810 m 256,0,1
 1839 810 1839 810 1865.5 796 c 0,2,3
 1892 782 1892 782 1906 755.5 c 0,4,5
 1920 729 1920 729 1920 700 c 256,6,7
 1920 671 1920 671 1906 644.5 c 0,8,9
 1892 618 1892 618 1865.5 604 c 0,10,11
 1839 590 1839 590 1810 590 c 256,12,13
 1781 590 1781 590 1754.5 604 c 0,14,15
 1728 618 1728 618 1714 644.5 c 0,16,17
 1700 671 1700 671 1700 700 c 256,18,19
 1700 729 1700 729 1714 755.5 c 0,20,21
 1728 782 1728 782 1754.5 796 c 0,22,23
 1781 810 1781 810 1810 810 c 256,0,1
1010 810 m 256,24,25
 1039 810 1039 810 1065.5 796 c 0,26,27
 1092 782 1092 782 1106 755.5 c 0,28,29
 1120 729 1120 729 1120 700 c 256,30,31
 1120 671 1120 671 1106 644.5 c 0,32,33
 1092 618 1092 618 1065.5 604 c 0,34,35
 1039 590 1039 590 1010 590 c 256,36,37
 981 590 981 590 954.5 604 c 0,38,39
 928 618 928 618 914 644.5 c 0,40,41
 900 671 900 671 900 700 c 256,42,43
 900 729 900 729 914 755.5 c 0,44,45
 928 782 928 782 954.5 796 c 0,46,47
 981 810 981 810 1010 810 c 256,24,25
210 810 m 256,48,49
 239 810 239 810 265.5 796 c 0,50,51
 292 782 292 782 306 755.5 c 0,52,53
 320 729 320 729 320 700 c 256,54,55
 320 671 320 671 306 644.5 c 0,56,57
 292 618 292 618 265.5 604 c 0,58,59
 239 590 239 590 210 590 c 256,60,61
 181 590 181 590 154.5 604 c 0,62,63
 128 618 128 618 114 644.5 c 0,64,65
 100 671 100 671 100 700 c 256,66,67
 100 729 100 729 114 755.5 c 0,68,69
 128 782 128 782 154.5 796 c 0,70,71
 181 810 181 810 210 810 c 256,48,49
EndSplineSet
Validated: 1
EndChar

StartChar: uni2308
Encoding: 2059 8968 125
Width: 550
Flags: W
LayerCount: 2
Fore
SplineSet
100 -500 m 1,0,-1
 100 1600 l 1,1,-1
 500 1600 l 1,2,-1
 500 1525 l 1,3,-1
 200 1525 l 1,4,-1
 200 -500 l 1,5,-1
 100 -500 l 1,0,-1
EndSplineSet
Validated: 1
EndChar

StartChar: uni2309
Encoding: 2060 8969 126
Width: 550
Flags: W
LayerCount: 2
Fore
SplineSet
350 -500 m 1,0,-1
 350 1525 l 1,1,-1
 50 1525 l 1,2,-1
 50 1600 l 1,3,-1
 450 1600 l 1,4,-1
 450 -500 l 1,5,-1
 350 -500 l 1,0,-1
EndSplineSet
Validated: 1
EndChar

StartChar: uni230A
Encoding: 2061 8970 127
Width: 550
Flags: W
LayerCount: 2
Fore
SplineSet
200 1600 m 1,0,-1
 200 -425 l 1,1,-1
 500 -425 l 1,2,-1
 500 -500 l 1,3,-1
 100 -500 l 1,4,-1
 100 1600 l 1,5,-1
 200 1600 l 1,0,-1
EndSplineSet
Validated: 1
EndChar

StartChar: uni230B
Encoding: 2062 8971 128
Width: 550
Flags: W
LayerCount: 2
Fore
SplineSet
450 1600 m 1,0,-1
 450 -500 l 1,1,-1
 50 -500 l 1,2,-1
 50 -425 l 1,3,-1
 350 -425 l 1,4,-1
 350 1600 l 1,5,-1
 450 1600 l 1,0,-1
EndSplineSet
Validated: 1
EndChar

StartChar: uni27E6
Encoding: 2507 10214 129
Width: 750
Flags: W
LayerCount: 2
Fore
SplineSet
300 -425 m 1,0,-1
 300 1525 l 1,1,-1
 200 1525 l 1,2,-1
 200 -425 l 1,3,-1
 300 -425 l 1,0,-1
700 -425 m 1,4,-1
 700 -500 l 1,5,-1
 100 -500 l 1,6,-1
 100 1600 l 1,7,-1
 700 1600 l 1,8,-1
 700 1525 l 1,9,-1
 400 1525 l 1,10,-1
 400 -425 l 1,11,-1
 700 -425 l 1,4,-1
EndSplineSet
Validated: 1
EndChar

StartChar: uni27E7
Encoding: 2508 10215 130
Width: 750
Flags: W
LayerCount: 2
Fore
SplineSet
550 -425 m 1,0,-1
 550 1525 l 1,1,-1
 450 1525 l 1,2,-1
 450 -425 l 1,3,-1
 550 -425 l 1,0,-1
350 -425 m 1,4,-1
 350 1525 l 1,5,-1
 50 1525 l 1,6,-1
 50 1600 l 1,7,-1
 650 1600 l 1,8,-1
 650 -500 l 1,9,-1
 50 -500 l 1,10,-1
 50 -425 l 1,11,-1
 350 -425 l 1,4,-1
EndSplineSet
Validated: 1
EndChar

StartChar: uni27EA
Encoding: 2509 10218 131
Width: 950
Flags: W
LayerCount: 2
Fore
SplineSet
540 550 m 1,0,-1
 900 -500 l 1,1,-1
 390 550 l 1,2,-1
 900 1600 l 1,3,-1
 540 550 l 1,0,-1
250 550 m 1,4,-1
 610 -500 l 1,5,-1
 100 550 l 1,6,-1
 610 1600 l 1,7,-1
 250 550 l 1,4,-1
EndSplineSet
Validated: 1
EndChar

StartChar: uni27EB
Encoding: 2510 10219 132
Width: 950
Flags: W
LayerCount: 2
Fore
SplineSet
340 1600 m 1,0,-1
 850 550 l 1,1,-1
 340 -500 l 1,2,-1
 700 550 l 1,3,-1
 340 1600 l 1,0,-1
50 1600 m 1,4,-1
 560 550 l 1,5,-1
 50 -500 l 1,6,-1
 410 550 l 1,7,-1
 50 1600 l 1,4,-1
EndSplineSet
Validated: 1
EndChar

StartChar: uni27EC
Encoding: 2511 10220 133
Width: 751
Flags: W
LayerCount: 2
Fore
SplineSet
100 1340 m 1,0,-1
 550 1600 l 1,1,-1
 700 1600 l 1,2,-1
 350 1398 l 1,3,-1
 350 -297 l 1,4,-1
 700 -500 l 1,5,-1
 550 -500 l 1,6,-1
 100 -239 l 1,7,-1
 100 1340 l 1,0,-1
175 1297 m 1,8,-1
 175 -196 l 1,9,-1
 275 -254 l 1,10,-1
 275 1355 l 1,11,-1
 175 1297 l 1,8,-1
EndSplineSet
Validated: 1
EndChar

StartChar: uni27ED
Encoding: 2512 10221 134
Width: 751
Flags: W
LayerCount: 2
Fore
SplineSet
650 -239 m 1,0,-1
 200 -500 l 1,1,-1
 50 -500 l 1,2,-1
 400 -297 l 1,3,-1
 400 1398 l 1,4,-1
 50 1600 l 1,5,-1
 200 1600 l 1,6,-1
 650 1340 l 1,7,-1
 650 -239 l 1,0,-1
475 1355 m 1,8,-1
 475 -254 l 1,9,-1
 575 -196 l 1,10,-1
 575 1297 l 1,11,-1
 475 1355 l 1,8,-1
EndSplineSet
Validated: 1
EndChar

StartChar: uni2A03
Encoding: 2789 10755 135
Width: 1900
Flags: W
LayerCount: 2
Fore
SplineSet
950 310 m 256,0,1
 979 310 979 310 1005.5 296 c 0,2,3
 1032 282 1032 282 1046 255.5 c 0,4,5
 1060 229 1060 229 1060 200 c 256,6,7
 1060 171 1060 171 1046 144.5 c 0,8,9
 1032 118 1032 118 1005.5 104 c 0,10,11
 979 90 979 90 950 90 c 256,12,13
 921 90 921 90 894.5 104 c 0,14,15
 868 118 868 118 854 144.5 c 0,16,17
 840 171 840 171 840 200 c 256,18,19
 840 229 840 229 854 255.5 c 0,20,21
 868 282 868 282 894.5 296 c 0,22,23
 921 310 921 310 950 310 c 256,0,1
EndSplineSet
Refer: 123 8899 N 1 0 0 1 0 0 1
Validated: 1
EndChar

StartChar: uni2A05
Encoding: 2791 10757 137
Width: 1900
Flags: W
LayerCount: 2
Fore
SplineSet
200 1600 m 1,0,-1
 200 -500 l 1,1,-1
 100 -500 l 1,2,-1
 100 1700 l 1,3,-1
 1800 1700 l 1,4,-1
 1800 -500 l 1,5,-1
 1700 -500 l 1,6,-1
 1700 1600 l 1,7,-1
 200 1600 l 1,0,-1
EndSplineSet
Validated: 1
EndChar

StartChar: uni2A06
Encoding: 2792 10758 138
Width: 1900
Flags: W
LayerCount: 2
Fore
SplineSet
1700 -400 m 1,0,-1
 1700 1700 l 1,1,-1
 1800 1700 l 1,2,-1
 1800 -500 l 1,3,-1
 100 -500 l 1,4,-1
 100 1700 l 1,5,-1
 200 1700 l 1,6,-1
 200 -400 l 1,7,-1
 1700 -400 l 1,0,-1
EndSplineSet
Validated: 1
EndChar

StartChar: uni2B1A
Encoding: 3066 11034 139
Width: 1500
Flags: W
LayerCount: 2
Fore
SplineSet
150 150 m 260,0,1
 163 150 163 150 175 143.5 c 132,-1,2
 187 137 187 137 193.5 125 c 132,-1,3
 200 113 200 113 200 100 c 260,4,5
 200 87 200 87 193.5 75 c 132,-1,6
 187 63 187 63 175 56.5 c 132,-1,7
 163 50 163 50 150 50 c 260,8,9
 137 50 137 50 125 56.5 c 132,-1,10
 113 63 113 63 106.5 75 c 132,-1,11
 100 87 100 87 100 100 c 260,12,13
 100 113 100 113 106.5 125 c 132,-1,14
 113 137 113 137 125 143.5 c 132,-1,15
 137 150 137 150 150 150 c 260,0,1
1350 150 m 260,16,17
 1363 150 1363 150 1375 143.5 c 132,-1,18
 1387 137 1387 137 1393.5 125 c 132,-1,19
 1400 113 1400 113 1400 100 c 260,20,21
 1400 87 1400 87 1393.5 75 c 132,-1,22
 1387 63 1387 63 1375 56.5 c 132,-1,23
 1363 50 1363 50 1350 50 c 260,24,25
 1337 50 1337 50 1325 56.5 c 132,-1,26
 1313 63 1313 63 1306.5 75 c 132,-1,27
 1300 87 1300 87 1300 100 c 260,28,29
 1300 113 1300 113 1306.5 125 c 132,-1,30
 1313 137 1313 137 1325 143.5 c 132,-1,31
 1337 150 1337 150 1350 150 c 260,16,17
750 150 m 260,32,33
 763 150 763 150 775 143.5 c 132,-1,34
 787 137 787 137 793.5 125 c 132,-1,35
 800 113 800 113 800 100 c 260,36,37
 800 87 800 87 793.5 75 c 132,-1,38
 787 63 787 63 775 56.5 c 132,-1,39
 763 50 763 50 750 50 c 260,40,41
 737 50 737 50 725 56.5 c 132,-1,42
 713 63 713 63 706.5 75 c 132,-1,43
 700 87 700 87 700 100 c 260,44,45
 700 113 700 113 706.5 125 c 132,-1,46
 713 137 713 137 725 143.5 c 132,-1,47
 737 150 737 150 750 150 c 260,32,33
450 150 m 260,48,49
 463 150 463 150 475 143.5 c 132,-1,50
 487 137 487 137 493.5 125 c 132,-1,51
 500 113 500 113 500 100 c 260,52,53
 500 87 500 87 493.5 75 c 132,-1,54
 487 63 487 63 475 56.5 c 132,-1,55
 463 50 463 50 450 50 c 260,56,57
 437 50 437 50 425 56.5 c 132,-1,58
 413 63 413 63 406.5 75 c 132,-1,59
 400 87 400 87 400 100 c 260,60,61
 400 113 400 113 406.5 125 c 132,-1,62
 413 137 413 137 425 143.5 c 132,-1,63
 437 150 437 150 450 150 c 260,48,49
1050 150 m 260,64,65
 1063 150 1063 150 1075 143.5 c 132,-1,66
 1087 137 1087 137 1093.5 125 c 132,-1,67
 1100 113 1100 113 1100 100 c 260,68,69
 1100 87 1100 87 1093.5 75 c 132,-1,70
 1087 63 1087 63 1075 56.5 c 132,-1,71
 1063 50 1063 50 1050 50 c 260,72,73
 1037 50 1037 50 1025 56.5 c 132,-1,74
 1013 63 1013 63 1006.5 75 c 132,-1,75
 1000 87 1000 87 1000 100 c 260,76,77
 1000 113 1000 113 1006.5 125 c 132,-1,78
 1013 137 1013 137 1025 143.5 c 132,-1,79
 1037 150 1037 150 1050 150 c 260,64,65
150 1350 m 260,80,81
 163 1350 163 1350 175 1343.5 c 132,-1,82
 187 1337 187 1337 193.5 1325 c 132,-1,83
 200 1313 200 1313 200 1300 c 260,84,85
 200 1287 200 1287 193.5 1275 c 132,-1,86
 187 1263 187 1263 175 1256.5 c 132,-1,87
 163 1250 163 1250 150 1250 c 260,88,89
 137 1250 137 1250 125 1256.5 c 132,-1,90
 113 1263 113 1263 106.5 1275 c 132,-1,91
 100 1287 100 1287 100 1300 c 260,92,93
 100 1313 100 1313 106.5 1325 c 132,-1,94
 113 1337 113 1337 125 1343.5 c 132,-1,95
 137 1350 137 1350 150 1350 c 260,80,81
1350 1350 m 260,96,97
 1363 1350 1363 1350 1375 1343.5 c 132,-1,98
 1387 1337 1387 1337 1393.5 1325 c 132,-1,99
 1400 1313 1400 1313 1400 1300 c 260,100,101
 1400 1287 1400 1287 1393.5 1275 c 132,-1,102
 1387 1263 1387 1263 1375 1256.5 c 132,-1,103
 1363 1250 1363 1250 1350 1250 c 260,104,105
 1337 1250 1337 1250 1325 1256.5 c 132,-1,106
 1313 1263 1313 1263 1306.5 1275 c 132,-1,107
 1300 1287 1300 1287 1300 1300 c 260,108,109
 1300 1313 1300 1313 1306.5 1325 c 132,-1,110
 1313 1337 1313 1337 1325 1343.5 c 132,-1,111
 1337 1350 1337 1350 1350 1350 c 260,96,97
750 1350 m 260,112,113
 763 1350 763 1350 775 1343.5 c 132,-1,114
 787 1337 787 1337 793.5 1325 c 132,-1,115
 800 1313 800 1313 800 1300 c 260,116,117
 800 1287 800 1287 793.5 1275 c 132,-1,118
 787 1263 787 1263 775 1256.5 c 132,-1,119
 763 1250 763 1250 750 1250 c 260,120,121
 737 1250 737 1250 725 1256.5 c 132,-1,122
 713 1263 713 1263 706.5 1275 c 132,-1,123
 700 1287 700 1287 700 1300 c 260,124,125
 700 1313 700 1313 706.5 1325 c 132,-1,126
 713 1337 713 1337 725 1343.5 c 132,-1,127
 737 1350 737 1350 750 1350 c 260,112,113
450 1350 m 260,128,129
 463 1350 463 1350 475 1343.5 c 132,-1,130
 487 1337 487 1337 493.5 1325 c 132,-1,131
 500 1313 500 1313 500 1300 c 260,132,133
 500 1287 500 1287 493.5 1275 c 132,-1,134
 487 1263 487 1263 475 1256.5 c 132,-1,135
 463 1250 463 1250 450 1250 c 260,136,137
 437 1250 437 1250 425 1256.5 c 132,-1,138
 413 1263 413 1263 406.5 1275 c 132,-1,139
 400 1287 400 1287 400 1300 c 260,140,141
 400 1313 400 1313 406.5 1325 c 132,-1,142
 413 1337 413 1337 425 1343.5 c 132,-1,143
 437 1350 437 1350 450 1350 c 260,128,129
1050 1350 m 260,144,145
 1063 1350 1063 1350 1075 1343.5 c 132,-1,146
 1087 1337 1087 1337 1093.5 1325 c 132,-1,147
 1100 1313 1100 1313 1100 1300 c 260,148,149
 1100 1287 1100 1287 1093.5 1275 c 132,-1,150
 1087 1263 1087 1263 1075 1256.5 c 132,-1,151
 1063 1250 1063 1250 1050 1250 c 260,152,153
 1037 1250 1037 1250 1025 1256.5 c 132,-1,154
 1013 1263 1013 1263 1006.5 1275 c 132,-1,155
 1000 1287 1000 1287 1000 1300 c 260,156,157
 1000 1313 1000 1313 1006.5 1325 c 132,-1,158
 1013 1337 1013 1337 1025 1343.5 c 132,-1,159
 1037 1350 1037 1350 1050 1350 c 260,144,145
150 750 m 260,160,161
 163 750 163 750 175 743.5 c 132,-1,162
 187 737 187 737 193.5 725 c 132,-1,163
 200 713 200 713 200 700 c 260,164,165
 200 687 200 687 193.5 675 c 132,-1,166
 187 663 187 663 175 656.5 c 132,-1,167
 163 650 163 650 150 650 c 260,168,169
 137 650 137 650 125 656.5 c 132,-1,170
 113 663 113 663 106.5 675 c 132,-1,171
 100 687 100 687 100 700 c 260,172,173
 100 713 100 713 106.5 725 c 132,-1,174
 113 737 113 737 125 743.5 c 132,-1,175
 137 750 137 750 150 750 c 260,160,161
150 450 m 260,176,177
 163 450 163 450 175 443.5 c 132,-1,178
 187 437 187 437 193.5 425 c 132,-1,179
 200 413 200 413 200 400 c 260,180,181
 200 387 200 387 193.5 375 c 132,-1,182
 187 363 187 363 175 356.5 c 132,-1,183
 163 350 163 350 150 350 c 260,184,185
 137 350 137 350 125 356.5 c 132,-1,186
 113 363 113 363 106.5 375 c 132,-1,187
 100 387 100 387 100 400 c 260,188,189
 100 413 100 413 106.5 425 c 132,-1,190
 113 437 113 437 125 443.5 c 132,-1,191
 137 450 137 450 150 450 c 260,176,177
150 1050 m 260,192,193
 163 1050 163 1050 175 1043.5 c 132,-1,194
 187 1037 187 1037 193.5 1025 c 132,-1,195
 200 1013 200 1013 200 1000 c 260,196,197
 200 987 200 987 193.5 975 c 132,-1,198
 187 963 187 963 175 956.5 c 132,-1,199
 163 950 163 950 150 950 c 260,200,201
 137 950 137 950 125 956.5 c 132,-1,202
 113 963 113 963 106.5 975 c 132,-1,203
 100 987 100 987 100 1000 c 260,204,205
 100 1013 100 1013 106.5 1025 c 132,-1,206
 113 1037 113 1037 125 1043.5 c 132,-1,207
 137 1050 137 1050 150 1050 c 260,192,193
1350 750 m 260,208,209
 1363 750 1363 750 1375 743.5 c 132,-1,210
 1387 737 1387 737 1393.5 725 c 132,-1,211
 1400 713 1400 713 1400 700 c 260,212,213
 1400 687 1400 687 1393.5 675 c 132,-1,214
 1387 663 1387 663 1375 656.5 c 132,-1,215
 1363 650 1363 650 1350 650 c 260,216,217
 1337 650 1337 650 1325 656.5 c 132,-1,218
 1313 663 1313 663 1306.5 675 c 132,-1,219
 1300 687 1300 687 1300 700 c 260,220,221
 1300 713 1300 713 1306.5 725 c 132,-1,222
 1313 737 1313 737 1325 743.5 c 132,-1,223
 1337 750 1337 750 1350 750 c 260,208,209
1350 450 m 260,224,225
 1363 450 1363 450 1375 443.5 c 132,-1,226
 1387 437 1387 437 1393.5 425 c 132,-1,227
 1400 413 1400 413 1400 400 c 260,228,229
 1400 387 1400 387 1393.5 375 c 132,-1,230
 1387 363 1387 363 1375 356.5 c 132,-1,231
 1363 350 1363 350 1350 350 c 260,232,233
 1337 350 1337 350 1325 356.5 c 132,-1,234
 1313 363 1313 363 1306.5 375 c 132,-1,235
 1300 387 1300 387 1300 400 c 260,236,237
 1300 413 1300 413 1306.5 425 c 132,-1,238
 1313 437 1313 437 1325 443.5 c 132,-1,239
 1337 450 1337 450 1350 450 c 260,224,225
1350 1050 m 260,240,241
 1363 1050 1363 1050 1375 1043.5 c 132,-1,242
 1387 1037 1387 1037 1393.5 1025 c 132,-1,243
 1400 1013 1400 1013 1400 1000 c 260,244,245
 1400 987 1400 987 1393.5 975 c 132,-1,246
 1387 963 1387 963 1375 956.5 c 132,-1,247
 1363 950 1363 950 1350 950 c 260,248,249
 1337 950 1337 950 1325 956.5 c 132,-1,250
 1313 963 1313 963 1306.5 975 c 132,-1,251
 1300 987 1300 987 1300 1000 c 260,252,253
 1300 1013 1300 1013 1306.5 1025 c 132,-1,254
 1313 1037 1313 1037 1325 1043.5 c 132,-1,255
 1337 1050 1337 1050 1350 1050 c 260,240,241
EndSplineSet
Validated: 1
EndChar

StartChar: uni0093
Encoding: 147 147 141
Width: 1507
Flags: W
LayerCount: 2
Fore
SplineSet
1115 1645 m 256,0,1
 1038 1670 1038 1670 966 1620 c 1,2,3
 887 1557 887 1557 847 1437 c 0,4,5
 785 1247 785 1247 787 967 c 2,6,-1
 796 277 l 1,7,8
 805 -12 805 -12 744 -199 c 0,9,10
 668 -433 668 -433 525 -520 c 0,11,12
 395 -597 395 -597 278 -559 c 0,13,14
 162 -522 162 -522 104 -439 c 0,15,16
 47 -365 47 -365 67 -288 c 0,17,18
 78 -256 78 -256 114 -231 c 0,19,20
 152 -206 152 -206 190 -218 c 0,21,22
 282 -248 282 -248 263 -364 c 0,23,24
 243 -478 243 -478 338 -509 c 0,25,26
 403 -530 403 -530 480 -472 c 1,27,28
 555 -422 555 -422 597 -297 c 0,29,30
 659 -108 659 -108 656 180 c 2,31,-1
 646 866 l 2,32,33
 638 1151 638 1151 700 1340 c 0,34,35
 774 1568 774 1568 913 1656 c 0,36,37
 1039 1738 1039 1738 1175 1694 c 0,38,39
 1283 1659 1283 1659 1337 1575 c 0,40,41
 1396 1486 1396 1486 1373 1419 c 0,42,43
 1360 1377 1360 1377 1326 1359 c 0,44,45
 1291 1337 1291 1337 1251 1349 c 0,46,47
 1147 1383 1147 1383 1170 1525 c 1,48,49
 1192 1620 1192 1620 1115 1645 c 256,0,1
EndSplineSet
EndChar

